<?xml version="1.0" encoding="utf-8"?>
<!-- Generator: Adobe Illustrator 24.0.3, SVG Export Plug-In . SVG Version: 6.00 Build 0)  -->
<svg version="1.1" id="Layer_1" xmlns="http://www.w3.org/2000/svg" xmlns:xlink="http://www.w3.org/1999/xlink" x="0px" y="0px"
	 width="583.51px" height="135.35px" viewBox="0 0 583.51 135.35" enable-background="new 0 0 583.51 135.35" xml:space="preserve">
<g>
	<g>
		<g>
			<path fill="#FFFFFF" d="M139.31,84.3c0,4.48,1.57,8.31,4.72,11.49c3.18,3.14,7.04,4.72,11.55,4.72c4.48,0,8.3-1.57,11.49-4.72
				c3.14-3.18,4.72-7.02,4.72-11.49V51.22c0-1.53,0.54-2.84,1.63-3.93c1.09-1.09,2.4-1.63,3.93-1.63h0.12
				c1.53,0,2.82,0.54,3.87,1.63c1.09,1.09,1.63,2.4,1.63,3.93V84.3c0,7.54-2.68,13.99-8.04,19.35c-5.36,5.36-11.81,8.04-19.35,8.04
				c-7.58,0-14.05-2.68-19.41-8.04c-5.36-5.36-8.04-11.81-8.04-19.35V51.22c0-1.53,0.54-2.84,1.63-3.93
				c1.09-1.09,2.38-1.63,3.87-1.63h0.18c1.49,0,2.78,0.54,3.87,1.63c1.09,1.09,1.63,2.4,1.63,3.93V84.3z"/>
			<path fill="#FFFFFF" d="M214.48,56.84c-2.26,0-4.17,0.79-5.75,2.36c-1.57,1.61-2.36,3.53-2.36,5.75c0,3.14,1.49,5.5,4.48,7.08
				c0.93,0.48,4.41,1.53,10.46,3.14c4.51,1.29,7.82,2.94,9.92,4.96c2.98,2.82,4.48,6.92,4.48,12.28c0,5.32-1.87,9.88-5.62,13.67
				c-3.79,3.75-8.35,5.62-13.67,5.62h-15.78c-1.49,0-2.78-0.54-3.87-1.63c-1.09-1.05-1.63-2.34-1.63-3.87v-0.12
				c0-1.53,0.54-2.84,1.63-3.93c1.09-1.09,2.38-1.63,3.87-1.63h16.39c2.26,0,4.17-0.79,5.75-2.36c1.57-1.57,2.36-3.49,2.36-5.75
				c0-2.98-1.49-5.2-4.48-6.65c-0.69-0.32-4.17-1.37-10.46-3.14c-4.48-1.33-7.78-3.02-9.92-5.08c-2.98-2.94-4.48-7.14-4.48-12.58
				c0-5.32,1.87-9.86,5.62-13.61c3.79-3.79,8.35-5.68,13.67-5.68h11.13c1.53,0,2.84,0.54,3.93,1.63c1.09,1.09,1.63,2.4,1.63,3.93
				v0.12c0,1.53-0.54,2.82-1.63,3.87c-1.09,1.09-2.4,1.63-3.93,1.63H214.48z"/>
			<path fill="#FFFFFF" d="M304.22,55.33c6.45,6.45,9.68,14.23,9.68,23.34v27.52c0,1.53-0.54,2.82-1.63,3.87
				c-1.09,1.09-2.38,1.63-3.87,1.63h-0.18c-1.49,0-2.78-0.54-3.87-1.63c-1.09-1.05-1.63-2.34-1.63-3.87v-2.78
				c-6.25,5.52-13.53,8.28-21.83,8.28c-9.11,0-16.89-3.22-23.34-9.68c-6.45-6.45-9.68-14.23-9.68-23.34
				c0-9.11,3.23-16.89,9.68-23.34c6.45-6.45,14.23-9.68,23.34-9.68C289.99,45.65,297.77,48.88,304.22,55.33z M265.4,63.25
				c-4.23,4.27-6.35,9.41-6.35,15.42c0,6.05,2.12,11.21,6.35,15.48c4.27,4.23,9.43,6.35,15.48,6.35s11.19-2.12,15.42-6.35
				c4.27-4.27,6.41-9.43,6.41-15.48c0-6.01-2.14-11.15-6.41-15.42c-4.23-4.27-9.37-6.41-15.42-6.41S269.67,58.98,265.4,63.25z"/>
			<path fill="#FFFFFF" d="M384.83,55.33c6.45,6.45,9.68,14.23,9.68,23.34v27.52c0,1.53-0.54,2.82-1.63,3.87
				c-1.09,1.09-2.38,1.63-3.87,1.63h-0.18c-1.49,0-2.78-0.54-3.87-1.63c-1.09-1.05-1.63-2.34-1.63-3.87v-2.78
				c-6.25,5.52-13.53,8.28-21.83,8.28c-9.11,0-16.89-3.22-23.34-9.68c-6.45-6.45-9.68-14.23-9.68-23.34
				c0-9.11,3.22-16.89,9.68-23.34c6.45-6.45,14.23-9.68,23.34-9.68C370.6,45.65,378.38,48.88,384.83,55.33z M346.01,63.25
				c-4.23,4.27-6.35,9.41-6.35,15.42c0,6.05,2.12,11.21,6.35,15.48c4.27,4.23,9.43,6.35,15.48,6.35s11.19-2.12,15.42-6.35
				c4.27-4.27,6.41-9.43,6.41-15.48c0-6.01-2.14-11.15-6.41-15.42c-4.23-4.27-9.37-6.41-15.42-6.41S350.28,58.98,346.01,63.25z"/>
			<path fill="#FFFFFF" d="M467.8,20.86c1.49,0,2.78,0.52,3.87,1.57c1.09,1.09,1.63,2.4,1.63,3.93v52.49
				c-0.04,9.07-3.29,16.81-9.74,23.22c-6.45,6.41-14.21,9.62-23.28,9.62c-9.11,0-16.89-3.22-23.34-9.68
				c-6.45-6.45-9.68-14.23-9.68-23.34c0-9.11,3.23-16.89,9.68-23.34c6.45-6.45,14.23-9.68,23.34-9.68c8.3,0,15.58,2.76,21.83,8.28
				V26.36c0-1.53,0.54-2.84,1.63-3.93c1.09-1.05,2.38-1.57,3.87-1.57H467.8z M424.81,63.37c-4.23,4.27-6.35,9.43-6.35,15.48
				c0,6.01,2.12,11.15,6.35,15.42c4.27,4.27,9.43,6.41,15.48,6.41c6.05,0,11.19-2.14,15.42-6.41c4.27-4.27,6.41-9.41,6.41-15.42
				c0-6.05-2.14-11.21-6.41-15.48c-4.23-4.27-9.37-6.41-15.42-6.41C434.24,56.96,429.08,59.1,424.81,63.37z"/>
			<path fill="#FFFFFF" d="M544.24,55.33c6.45,6.45,9.68,14.23,9.68,23.34v27.52c0,1.53-0.54,2.82-1.63,3.87
				c-1.09,1.09-2.38,1.63-3.87,1.63h-0.18c-1.49,0-2.78-0.54-3.87-1.63c-1.09-1.05-1.63-2.34-1.63-3.87v-2.78
				c-6.25,5.52-13.53,8.28-21.83,8.28c-9.11,0-16.89-3.22-23.34-9.68c-6.45-6.45-9.68-14.23-9.68-23.34
				c0-9.11,3.23-16.89,9.68-23.34c6.45-6.45,14.23-9.68,23.34-9.68C530.01,45.65,537.79,48.88,544.24,55.33z M505.42,63.25
				c-4.23,4.27-6.35,9.41-6.35,15.42c0,6.05,2.12,11.21,6.35,15.48c4.27,4.23,9.43,6.35,15.48,6.35c6.05,0,11.19-2.12,15.42-6.35
				c4.27-4.27,6.41-9.43,6.41-15.48c0-6.01-2.14-11.15-6.41-15.42c-4.23-4.27-9.37-6.41-15.42-6.41
				C514.85,56.84,509.69,58.98,505.42,63.25z"/>
		</g>
	</g>
	<g>
		<g>
			<g>
				<g>
					<circle fill="#FFFFFF" cx="98.79" cy="29.52" r="8.66"/>
				</g>
				<g>
					<path fill="#FFFFFF" d="M75.92,55.25c-0.77,0.8-1.48,1.64-2.12,2.48c-0.01,0.02-0.03,0.04-0.05,0.06
						c-0.04,0.05-0.08,0.1-0.12,0.16c-0.07,0.1-0.15,0.19-0.22,0.29c-0.19,0.26-0.38,0.53-0.56,0.78c-0.03,0.04-0.06,0.08-0.08,0.12
						c-0.03,0.05-0.06,0.09-0.1,0.14c-0.01,0.02-0.03,0.04-0.04,0.06c-2.55,3.73-3.84,7.09-3.84,7.09
						c-0.19-3.42,0.37-6.67,1.48-9.64c0.04-0.1,0.07-0.19,0.11-0.29c0-0.01,0.01-0.03,0.01-0.04c0.01-0.03,0.02-0.06,0.03-0.09
						c0.15-0.38,0.31-0.76,0.48-1.13c0.06-0.13,0.12-0.25,0.18-0.38c0.03-0.06,0.06-0.12,0.09-0.19c0.01-0.03,0.03-0.05,0.04-0.07
						c0.63-1.29,1.37-2.52,2.2-3.67C74.38,52.28,75.23,53.72,75.92,55.25z"/>
				</g>
				<g>
					<path fill="#FFFFFF" d="M115.66,115.01c-18.05-10.54-17.93-26.4-16.88-42.15S95.07,49.6,87.2,49.48
						c-4.14,0.21-7.6,2.26-10.37,4.86c-0.73-1.55-1.62-3.02-2.65-4.41c5.07-6.36,12.92-10.1,20.04-9.17
						c10.89,1.42,23.25,7.15,19.62,32.22C109.94,99.92,115.66,115.01,115.66,115.01z"/>
				</g>
			</g>
		</g>
		<path opacity="0.2" fill="#00DD8D" d="M73.75,57.79c-0.04,0.05-0.08,0.1-0.12,0.16c-0.07,0.1-0.15,0.19-0.22,0.29
			c-0.19,0.26-0.38,0.53-0.56,0.78c-0.03,0.04-0.06,0.08-0.08,0.12c-0.03,0.05-0.06,0.09-0.1,0.14c-0.01,0.02-0.03,0.04-0.04,0.06
			c-0.29-0.39-0.7-0.89-1.25-1.44c-0.44-0.44-0.82-0.81-1.11-1.1c0.04-0.1,0.07-0.19,0.11-0.29c0-0.01,0.01-0.03,0.01-0.04
			c0.01-0.03,0.02-0.06,0.03-0.09c0.15-0.38,0.31-0.76,0.48-1.13c0.06-0.13,0.12-0.25,0.18-0.38c0.03-0.06,0.06-0.12,0.09-0.19
			L73.75,57.79z"/>
		<g>
			<circle fill="#00DD8D" cx="48.04" cy="29.52" r="8.66"/>
			<path fill="#00DD8D" d="M78.04,66.44c0,0-6.3-16.35-18.41-16.96c-7.87,0.12-12.64,7.63-11.59,23.38
				c1.05,15.75,1.17,31.61-16.88,42.15c0,0,5.72-15.08,1.82-42.03c-3.63-25.07,8.73-30.8,19.62-32.22
				C64.72,39.19,78.89,51.06,78.04,66.44z"/>
		</g>
	</g>
</g>
</svg>
