<svg width="64" height="64" viewBox="0 0 66 66" fill="none" xmlns="http://www.w3.org/2000/svg"><g clip-path="url(#clip0)"><path d="M56 66H10C4.467 66 0 61.533 0 56V10C0 4.467 4.467 0 10 0h46c5.533 0 10 4.467 10 10v46c0 5.533-4.467 10-10 10z" fill="#F9A46F"/><path d="M43 60.667H23a7.312 7.312 0 01-7.333-7.334V12.667A7.312 7.312 0 0123 5.333h20a7.312 7.312 0 017.333 7.334v40.666A7.312 7.312 0 0143 60.667z" fill="#fff"/><path d="M41.067 56H24.933a4.638 4.638 0 01-4.666-4.667V14.667c0-2.6 2.067-4.667 4.666-4.667H41c2.6 0 4.667 2.067 4.667 4.667v36.666c.066 2.6-2.067 4.667-4.6 4.667z" fill="#F9A46F"/><path d="M33 52.533a2.133 2.133 0 100-4.267 2.133 2.133 0 000 4.267z" fill="#fff"/><path d="M26.667 16h12.666" stroke="#fff" stroke-width="5" stroke-miterlimit="10" stroke-linecap="round"/></g><defs><clipPath id="clip0"><path fill="#fff" d="M0 0h66v66H0z"/></clipPath></defs></svg>