<svg width="807" height="598" viewBox="0 0 807 598" fill="none" xmlns="http://www.w3.org/2000/svg"><g opacity=".1"><path d="M208.6 527.9l110.1 65.2c9.3 5.5 20.9 5.6 30.4.2l73.4-42.2" fill="#F7F6FB"/><path d="M208.6 527.9l110.1 65.2c9.3 5.5 20.9 5.6 30.4.2l73.4-42.2" stroke="#7765AD" stroke-width="1.4" stroke-miterlimit="10" stroke-linecap="round" stroke-linejoin="round"/></g><g opacity=".1"><path d="M438.501 541.8l211.2-121.3c8.4-4.8 8.4-17 0-21.9l-124-71.6c-9.3-5.4-20.8-5.4-30.1 0l-299.1 171.8c-8.4 4.8-8.5 16.9-.1 21.8l7.9 4.6" fill="#F7F6FB"/><path d="M438.501 541.8l211.2-121.3c8.4-4.8 8.4-17 0-21.9l-124-71.6c-9.3-5.4-20.8-5.4-30.1 0l-299.1 171.8c-8.4 4.8-8.5 16.9-.1 21.8l7.9 4.6" stroke="#7765AD" stroke-width="1.4" stroke-miterlimit="10" stroke-linecap="round" stroke-linejoin="round"/></g><g opacity=".4"><path d="M208.6 511.8L318.7 577c9.3 5.5 20.9 5.6 30.4.2l73.4-42.2" fill="#F7F6FB"/><path d="M208.6 511.8L318.7 577c9.3 5.5 20.9 5.6 30.4.2l73.4-42.2" stroke="#7765AD" stroke-width="1.4" stroke-miterlimit="10" stroke-linecap="round" stroke-linejoin="round"/></g><g opacity=".4"><path d="M438.501 525.8l211.2-121.3c8.4-4.8 8.4-17 0-21.9l-124-71.6c-9.3-5.4-20.8-5.4-30.1 0l-299.1 171.8c-8.4 4.8-8.5 16.9-.1 21.8l7.9 4.6" fill="#F7F6FB"/><path d="M438.501 525.8l211.2-121.3c8.4-4.8 8.4-17 0-21.9l-124-71.6c-9.3-5.4-20.8-5.4-30.1 0l-299.1 171.8c-8.4 4.8-8.5 16.9-.1 21.8l7.9 4.6" stroke="#7765AD" stroke-width="1.4" stroke-miterlimit="10" stroke-linecap="round" stroke-linejoin="round"/></g><path d="M196.1 447c-15.5 9.8-15.1 33.4.9 42.9l61.9 37" stroke="#7765AD" stroke-width="1.4" stroke-miterlimit="10" stroke-linecap="round" stroke-linejoin="round"/><path d="M196.501 446.8c-8.4 4.8-8.5 16.9-.1 21.8l122.3 72.4c9.3 5.5 20.9 5.6 30.4.2l300.6-172.8c8.4-4.8 8.4-17 0-21.9l-124-71.6c-9.3-5.4-20.8-5.4-30.1 0l-299.1 171.9z" fill="#F7F6FB"/><path d="M208.6 475.8L318.7 541c9.3 5.5 20.9 5.6 30.4.2l73.4-42.2" fill="#F7F6FB"/><path d="M208.6 475.8L318.7 541c9.3 5.5 20.9 5.6 30.4.2l73.4-42.2" stroke="#7765AD" stroke-width="1.4" stroke-miterlimit="10" stroke-linecap="round" stroke-linejoin="round"/><path d="M437.799 489.4l211.2-121.3c8.4-4.8 8.6-17 .1-21.9l-124.1-71.6c-9.3-5.4-20.8-5.4-30.1 0l-299 171.8c-8.4 4.8-8.5 16.9-.1 21.8l7.9 4.6" fill="#F7F6FB"/><path d="M437.799 489.4l211.2-121.3c8.4-4.8 8.6-17 .1-21.9l-124.1-71.6c-9.3-5.4-20.8-5.4-30.1 0l-299 171.8c-8.4 4.8-8.5 16.9-.1 21.8l7.9 4.6" stroke="#7765AD" stroke-width="1.4" stroke-miterlimit="10" stroke-linecap="round" stroke-linejoin="round"/><path d="M416.799 372.3l-24.5-14.1c-3.3-1.9-2.9-5.3.9-7.5l22.4-12.9c3.8-2.2 9.6-2.4 12.9-.5l24.5 14.1c3.3 1.9 2.9 5.3-.9 7.5l-22.4 12.9c-3.8 2.2-9.6 2.4-12.9.5zM507.7 424.8l-24.5-14.1c-3.3-1.9-2.9-5.3.9-7.5l22.399-12.9c3.8-2.2 9.6-2.4 12.9-.5l24.5 14.1c3.3 1.9 2.9 5.3-.9 7.5L520.6 424.3c-3.8 2.1-9.6 2.4-12.9.5z" stroke="#B1CEE5" stroke-width="1.4" stroke-linecap="round" stroke-linejoin="round" stroke-dasharray="5.15 5.15"/><path d="M553.899 308.2l-.2-.1M585.099 326.2l-26.3-15.2" stroke="#7765AD" stroke-width="1.4" stroke-miterlimit="10" stroke-linecap="round" stroke-linejoin="round"/><path d="M271.199 534.2l.9.5" stroke="#7765AD" stroke-width="2.2" stroke-miterlimit="10" stroke-linecap="round" stroke-linejoin="round"/><path d="M351.699 368.2l139.1 79.3M430.1 494.6l1.6-1M302.799 395.9l188.4-107 32.1 18.3M530.5 311.3l100.101 57L363.4 520l-137-80.7 71.801-40.8M263.3 483.7c-6.1 3.5-6.1 9.3 0 12.9 6.1 3.5 16.199 3.6 22.299 0 6.1-3.6 6.1-9.3 0-12.9-6.1-3.6-16.199-3.5-22.299 0z" stroke="#7765AD" stroke-width="1.4" stroke-miterlimit="10" stroke-linecap="round" stroke-linejoin="round"/><path d="M251 453.8l-24.6-14.5L348.601 370l3.1-1.8L490.9 447.6l-2.4 1.3L363.4 520l-103.299-60.9" fill="#DFDFEF"/><path d="M262.801 460.8L226.4 439.3 348.601 370l3.1-1.8L490.9 447.6l-2.4 1.3L363.4 520l-101.9-60" stroke="#7765AD" stroke-width="1.2" stroke-miterlimit="10" stroke-linecap="round" stroke-linejoin="round"/><path d="M430.8 54.4c-6.7.3-12.5 4.1-15.7 9.5H414c-7.3.4-12.9 6.8-12.5 14.4.1 1.1.2 2.1.5 3.1-5.2.6-9.1 5.5-8.8 11.3.3 6 5 10.7 10.4 10.4 3.1-.2 5.8-1.8 7.5-4.4 1.3.5 2.6.7 4 .6 4-.2 7.4-2.6 9.3-6.2 2.6 1.1 5.4 1.6 8.4 1.5 10.8-.5 19.2-10 18.7-21.1-.6-11-9.9-19.6-20.7-19.1z" fill="#F7F6FB"/><path d="M440.499 58.4c-.5-.3-1 .3-.6.8 2.7 2.9 4.5 6.8 4.7 11.1.5 9.5-6.7 17.7-16 18.1-2.4.1-4.7-.3-6.8-1.1-.2-.1-.5 0-.6.2-1.6 2.8-4.5 4.8-7.8 4.9-1.1.1-2.1-.1-3.1-.4-.2-.1-.4 0-.6.2-1.5 2-3.7 3.3-6.2 3.5-3.7.2-7-2.3-8.3-5.8-.1-.2-.4-.2-.4.1-.5 6.1 4.1 11.4 9.7 11.1 2.8-.1 5.2-1.6 6.8-3.8.1-.2.4-.3.6-.2 1.1.3 2.2.5 3.4.5 3.6-.2 6.7-2.3 8.5-5.4.1-.2.4-.3.6-.2 2.3.9 4.8 1.3 7.4 1.2 10.1-.5 17.9-9.3 17.4-19.7-.4-6.5-3.8-12-8.7-15.1z" fill="#DFDFEF"/><path d="M402.6 103.1h.6c3.1-.2 5.8-1.8 7.5-4.4 1.3.5 2.6.7 4 .6 4-.2 7.4-2.6 9.3-6.2 2.6 1.1 5.399 1.6 8.399 1.5 10.8-.5 19.201-10 18.701-21.1-.5-11.1-9.8-19.7-20.6-19.2-1.7.1-3.4.4-5 .9M398.398 101.9c.2.1.501.2.701.3M422.499 56.6c-3.2 1.7-5.9 4.2-7.8 7.3h-1.1c-7.3.4-12.9 6.8-12.5 14.4.1 1.1.2 2.1.5 3.1-5.2.6-9.1 5.5-8.8 11.3.1 2.8 1.2 5.4 2.9 7.2" stroke="#7765AD" stroke-width="1.4" stroke-miterlimit="10" stroke-linecap="round" stroke-linejoin="round"/><path d="M39.4 237.7a6.8 6.8 0 100-13.6 6.8 6.8 0 000 13.6zM790.701 109.6a6.8 6.8 0 006.799-6.8 6.8 6.8 0 10-13.6 0 6.8 6.8 0 006.801 6.8z" fill="#7CCED0"/><path d="M494.8 38.6a4.8 4.8 0 100-9.6 4.8 4.8 0 000 9.6zM160.4 138a4 4 0 100-8 4 4 0 000 8z" fill="#F9A46F"/><path d="M3.6 352.9a3.6 3.6 0 100-7.2 3.6 3.6 0 000 7.2zM370.301 45.7a4 4 0 100-8 4 4 0 000 8z" fill="#A5B9E0"/><path opacity=".4" d="M430.5 7.2a3.6 3.6 0 10.001-7.2 3.6 3.6 0 00-.001 7.2zM499.799 107.8a3.6 3.6 0 100-7.2 3.6 3.6 0 000 7.2z" fill="#FED519"/><path d="M741.586 195.205c6.697-.351 12.468-4.196 15.626-9.62l1.101-.009c7.296-.456 12.847-6.899 12.388-14.496-.108-1.099-.216-2.098-.523-3.096 5.195-.64 9.057-5.569 8.712-11.367-.346-5.997-5.082-10.661-10.479-10.32-3.099.224-5.786 1.845-7.466 4.458a9.08 9.08 0 00-4.005-.569c-3.998.23-7.379 2.657-9.252 6.271-2.608-1.08-5.412-1.558-8.411-1.435-10.796.583-19.123 10.147-18.537 21.243.684 10.995 10.05 19.523 20.846 18.94z" fill="#F7F6FB"/><path d="M731.856 191.28c.502.296.997-.308.593-.805-2.722-2.879-4.552-6.765-4.785-11.063-.573-9.496 6.564-17.751 15.86-18.223a17.067 17.067 0 016.808 1.048c.201.098.5-.004.599-.205 1.578-2.812 4.463-4.834 7.762-4.96 1.1-.108 2.101.084 3.103.376.201.099.4-.003.598-.204 1.485-2.012 3.675-3.329 6.174-3.548 3.698-.228 7.017 2.246 8.344 5.736.101.199.401.197.399-.103.453-6.104-4.187-11.368-9.785-11.025-2.799.122-5.188 1.64-6.771 3.852-.098.201-.397.303-.598.205-1.102-.292-2.204-.483-3.404-.474-3.598.228-6.682 2.352-8.458 5.465-.099.201-.398.303-.598.205-2.307-.882-4.811-1.263-7.41-1.143-10.096.577-17.828 9.437-17.248 19.833.45 6.497 3.893 11.97 8.817 15.033z" fill="#DFDFEF"/><path d="M769.41 146.29l-.6.004c-3.099.224-5.786 1.845-7.466 4.458a9.08 9.08 0 00-4.005-.569c-3.998.23-7.379 2.656-9.252 6.271-2.608-1.08-5.412-1.559-8.411-1.435-10.796.583-19.123 10.147-18.537 21.243.585 11.096 9.951 19.624 20.747 19.041a20.953 20.953 0 004.993-.939M773.619 147.457c-.201-.098-.502-.196-.702-.295M749.869 192.941c3.187-1.725 5.867-4.245 7.743-7.36l1.1-.008c7.297-.456 12.848-6.899 12.389-14.496-.108-1.099-.216-2.098-.524-3.096 5.196-.64 9.058-5.57 8.713-11.367-.121-2.8-1.241-5.391-2.955-7.178" stroke="#7765AD" stroke-width="1.4" stroke-miterlimit="10" stroke-linecap="round" stroke-linejoin="round"/><path d="M381.271 142.775a6.8 6.8 0 10.106 13.6 6.8 6.8 0 00-.106-13.6z" fill="#7CCED0"/><path d="M677.708 211.497a4.8 4.8 0 10.075 9.601 4.8 4.8 0 00-.075-9.601z" fill="#F9A46F"/><path d="M802.151 203.44a4 4 0 10.06 7.999 4 4 0 00-.06-7.999z" fill="#A5B9E0"/><path opacity=".4" d="M742.249 242.402a3.599 3.599 0 10.055 7.199 3.6 3.6 0 10-.055-7.199zM672.177 142.338a3.599 3.599 0 10.055 7.199 3.599 3.599 0 10-.055-7.199z" fill="#FED519"/><path d="M576.9 53.4c-1.6-6.3-8-10.1-14.3-8.6-2.6.7-4.8 2.2-6.4 4.2-3.3-1.6-7.1-2.1-10.9-1.1-8.6 2.1-13.8 10.8-11.6 19.4 2.1 8.6 10.8 13.8 19.4 11.6 4.2-1.1 7.6-3.7 9.7-7.1.5 0 1.1-.1 1.6-.2 2.2-.5 3.8-2.1 4.5-4.1 6-1.8 9.6-8 8-14.1z" fill="#F7F6FB"/><path d="M567.799 66.6c-.1 0-.2.1-.3.2-.6 1.6-2 2.8-3.8 3.3-.4.1-.8.2-1.2.2-.1 0-.3.1-.3.2-1.8 2.8-4.7 5-8.2 5.9-2.6.7-5.2.5-7.6-.3-.5-.2-.4-.8.1-.8 1.1 0 2.2-.1 3.3-.4 3.5-.9 6.4-3.1 8.2-5.9.1-.1.2-.2.3-.2.4 0 .8-.1 1.2-.2 1.8-.4 3.1-1.7 3.8-3.3 0-.1.1-.2.3-.2 5-1.6 7.9-6.8 6.6-12-.5-1.9-1.5-3.6-2.8-4.8-.3-.3 0-.9.4-.7 3.1 1.1 5.7 3.6 6.6 7.1 1.2 5.1-1.7 10.3-6.6 11.9z" fill="#DFDFEF"/><path d="M560.398 45.7c-1.6.8-2.999 1.9-4.099 3.3-3.3-1.6-7.101-2.1-10.901-1.1-7.7 1.9-12.699 9.1-12.099 16.8M563 44.8c-.1 0-.2.1-.4.1M533.699 67.3c2.1 8.6 10.8 13.8 19.4 11.6 4.2-1.1 7.6-3.7 9.7-7.1.5 0 1.1-.1 1.6-.2 2.2-.5 3.8-2.1 4.5-4.1 5.9-1.8 9.5-8 7.9-14.1-1.3-5.3-6.1-8.9-11.4-8.9" stroke="#7765AD" stroke-width="1.603" stroke-miterlimit="10" stroke-linecap="round" stroke-linejoin="round"/><path d="M445.199 388.5l16.8 9.7c3.3 1.9 9.1 1.7 12.9-.5l22.4-12.9c2.2-1.3 3.3-2.9 3.2-4.5V370c.1-1.3-.6-2.6-2.2-3.5l-24.5-14.1c-3.3-1.9-9.1-1.7-12.9.5l-22.4 12.9c-2.1 1.2-3.2 2.7-3.2 4.2v10.8c-.1 1.3.7 2.5 2.2 3.4l1.8 1" fill="#FED519"/><path d="M445.199 388.5l16.8 9.7c3.3 1.9 9.1 1.7 12.9-.5l22.4-12.9c2.2-1.3 3.3-2.9 3.2-4.5V370c.1-1.3-.6-2.6-2.2-3.5l-24.5-14.1c-3.3-1.9-9.1-1.7-12.9.5l-22.4 12.9c-2.1 1.2-3.2 2.7-3.2 4.2v10.8c-.1 1.3.7 2.5 2.2 3.4l1.8 1M442.199 386.8l.3.1" stroke="#7765AD" stroke-width="1.4" stroke-miterlimit="10" stroke-linecap="round" stroke-linejoin="round"/><path d="M475.599 386.3l-.701.4c-3.8 2.2-9.599 2.4-12.899.5l-24.5-14.1c-3.3-1.9-2.901-5.3.899-7.5l22.401-12.9c3.8-2.2 9.6-2.4 12.9-.5l24.5 14.1c3.3 1.9 2.9 5.3-.9 7.5l-17.401 10" fill="#FED519"/><path d="M475.599 386.3l-.701.4c-3.8 2.2-9.599 2.4-12.899.5l-24.5-14.1c-3.3-1.9-2.901-5.3.899-7.5l22.401-12.9c3.8-2.2 9.6-2.4 12.9-.5l24.5 14.1c3.3 1.9 2.9 5.3-.9 7.5l-17.401 10" stroke="#7765AD" stroke-width="1.4" stroke-miterlimit="10" stroke-linecap="round" stroke-linejoin="round"/><path d="M450.499 368.9c-.3-.5-.1-1 .5-1.3l7.8-4.5s.1 0 .1-.1l2.8-1.6c2.4-1.4 6.3-1.4 8.6 0l9.6 5.6c.5.3.9.6 1.2.9.3.4 0 .8-.6 1-.7.2-1.4 0-1.8-.3-.2-.2-.4-.4-.7-.5l-9.6-5.6c-1.3-.8-3.5-.8-4.9 0l-3 1.7s-.1 0-.1.1l-6.9 4 4.3.1c.3 0 .6.1.9.2l9.2 5.3c1.3.8 3.5.8 4.9 0l5.2-3c.1-.1.3-.2.4-.3.4-.3 1.2-.4 1.8-.2.6.2.7.7.3 1.1-.2.2-.4.3-.7.5l-5.2 3c-2.4 1.4-6.3 1.4-8.6 0l-8.8-5.1-4.9-.1c-.5 0-1-.1-1.4-.4-.2-.2-.3-.4-.4-.5z" fill="#7765AD"/><path d="M504.099 315.3c.1-1.3-.6-2.6-2.2-3.5l-24.5-14.1c-3.3-1.9-9.1-1.7-12.9.5l-22.4 12.9c-2.1 1.2-3.2 2.7-3.2 4.2v10.8c-.1 1.3.7 2.5 2.2 3.4l24.5 14.1c3.3 1.9 9.1 1.7 12.9-.5l22.4-12.9c2.2-1.3 3.3-2.9 3.2-4.5v-10.4z" fill="#7CCED0" stroke="#7765AD" stroke-width="1.4" stroke-miterlimit="10" stroke-linecap="round" stroke-linejoin="round"/><path d="M450.899 324.2l-9.699-5.6c-3.3-1.9-2.9-5.3.9-7.5l22.399-12.9c3.8-2.2 9.6-2.4 12.9-.5l24.5 14.1c3.3 1.9 2.9 5.3-.9 7.5L478.6 332.2c-3.8 2.2-9.6 2.4-12.9.5l-7.1-4.1" fill="#7CCED0"/><path d="M450.899 324.2l-9.699-5.6c-3.3-1.9-2.9-5.3.9-7.5l22.399-12.9c3.8-2.2 9.6-2.4 12.9-.5l24.5 14.1c3.3 1.9 2.9 5.3-.9 7.5L478.6 332.2c-3.8 2.2-9.6 2.4-12.9.5l-7.1-4.1M455.398 326.8l-.5-.3" stroke="#7765AD" stroke-width="1.4" stroke-miterlimit="10" stroke-linecap="round" stroke-linejoin="round"/><path d="M470.498 318.5c-1.9 0-3.6-.4-4.9-1.2-1.3-.7-2-1.7-2-2.8 0-1.1.7-2 2-2.8 1.3-.8 3.1-1.2 5-1.2s3.6.4 4.9 1.2c1.2.7 1.9 1.7 2 2.7 0 .1-.001.2-.101.3-.2.2-.6.3-1 .4-.6 0-1.199-.3-1.199-.6 0-.7-.5-1.4-1.4-1.9-.9-.5-2-.8-3.3-.8-1.2 0-2.4.3-3.3.8-.9.5-1.4 1.2-1.4 2s.5 1.5 1.4 2c.9.5 2 .8 3.3.8 1.2 0 2.4-.3 3.3-.8.2-.1.5-.2.9-.2.3 0 .6.1.8.2.2.1.3.3.3.4 0 .1-.1.3-.3.4-1.3.7-3.1 1.1-5 1.1z" fill="#7765AD"/><path d="M472.999 324.2c-1.2 0-2.3-.3-3.2-.8l-14.7-8.5c-.8-.5-1.3-1.1-1.3-1.7 0-.7.5-1.3 1.3-1.8l8.9-5.1c.9-.5 2-.8 3.2-.8 1.2 0 2.299.3 3.199.8l2.5 1.4c.2.1.401.2.601.2.1 0 .299 0 .399-.1l1.101-.3c.4-.1.899-.2 1.399-.2.8 0 1.701.2 2.301.5l3.6 2.1c.5.3.8.7.9 1.1.1.3-.001.6-.301.9l-.5.6c-.1.1-.099.2-.099.4 0 .1.1.3.3.4l2.5 1.4c.8.5 1.299 1.1 1.299 1.7 0 .7-.499 1.3-1.299 1.8l-8.9 5.1c-.8.6-2 .9-3.2.9zm-5.7-17.4c-.6 0-1.1.1-1.5.4l-8.901 5.1c-.4.2-.699.6-.699 1s.199.7.699.9l14.701 8.5c.4.2.9.4 1.5.4s1.1-.1 1.5-.4l8.9-5.1c.4-.2.7-.6.7-1s-.2-.7-.7-.9l-2.5-1.4c-.5-.3-.8-.7-.9-1.1-.1-.3-.001-.6.299-.9l.5-.6c.1-.1.101-.2.101-.3 0-.1-.1-.3-.3-.4l-3.6-2.1c-.2-.1-.4-.1-.6-.1h-.4l-1.1.3c-.4.1-.9.2-1.4.2-.9 0-1.7-.2-2.3-.5l-2.5-1.4c-.4-.5-.9-.6-1.5-.6z" fill="#7765AD"/><path d="M549.298 341.3c.1-1.3-.6-2.6-2.2-3.5l-24.5-14.1c-3.3-1.9-9.1-1.7-12.9.5l-22.4 12.9c-2.1 1.2-3.2 2.7-3.2 4.2v10.8c-.1 1.3.7 2.5 2.2 3.4l24.5 14.1c3.3 1.9 9.1 1.7 12.9-.5l22.4-12.9c2.2-1.3 3.3-2.9 3.2-4.5v-10.4z" fill="#F459A5" stroke="#7765AD" stroke-width="1.4" stroke-miterlimit="10" stroke-linecap="round" stroke-linejoin="round"/><path d="M513.599 359.7c-1-.2-2-.6-2.8-1l-24.5-14.1c-3.3-1.9-2.9-5.3.9-7.5l22.4-12.9c3.8-2.2 9.6-2.4 12.9-.5l24.5 14.1c3.3 1.9 2.9 5.3-.9 7.5l-22.4 12.9c-1.5.9-3.4 1.5-5.3 1.7" fill="#F9A46F" fill-opacity=".42"/><path d="M513.599 359.7c-1-.2-2-.6-2.8-1l-24.5-14.1c-3.3-1.9-2.9-5.3.9-7.5l22.4-12.9c3.8-2.2 9.6-2.4 12.9-.5l24.5 14.1c3.3 1.9 2.9 5.3-.9 7.5l-22.4 12.9c-1.5.9-3.4 1.5-5.3 1.7" stroke="#7765AD" stroke-width="1.4" stroke-miterlimit="10" stroke-linecap="round" stroke-linejoin="round"/><path d="M516.1 360h-.1.1z" fill="#F7F6FB"/><path d="M516.1 360h-.1" stroke="#7765AD" stroke-width="1.4" stroke-miterlimit="10" stroke-linecap="round" stroke-linejoin="round"/><path d="M522.399 346.3h-.7l-16.7-2c-.6-.1-1.1-.2-1.5-.5-.3-.2-.6-.4-.7-.7-.3-.5 0-1.1.7-1.5l.9-.5c.3-.2.6-.2 1-.2s.8.1 1 .2c.2.1.4.3.4.5s-.1.4-.4.5l-1 .6 16.8 2.1h.1c.2 0 .4-.1.5-.1.2-.1.3-.3.2-.5l-3.4-9.6-9.3 5.3c-.3.2-.6.2-1 .2s-.8-.1-1-.2c-.2-.1-.4-.3-.4-.5s.1-.4.4-.5l9.3-5.4c.5-.3 1.3-.5 2-.5.3 0 .6 0 .8.1 1 .2 1.8.6 2 1.2l3.4 9.6c.2.6-.1 1.3-.9 1.8-.6.4-1.5.6-2.5.6z" fill="#7765AD"/><path d="M536.799 384.6l19.8 11.4c3.3 1.9 9.1 1.7 12.9-.5l22.4-12.9c2.2-1.3 3.3-2.9 3.2-4.5v-10.3c.1-1.3-.6-2.6-2.2-3.5l-24.5-14.1c-3.3-1.9-9.1-1.7-12.9.5l-22.4 12.9c-2.1 1.2-3.2 2.7-3.2 4.2v10.8c-.1 1.3.7 2.5 2.2 3.4l1.2.7" fill="#80A1D4"/><path d="M536.799 384.6l19.8 11.4c3.3 1.9 9.1 1.7 12.9-.5l22.4-12.9c2.2-1.3 3.3-2.9 3.2-4.5v-10.3c.1-1.3-.6-2.6-2.2-3.5l-24.5-14.1c-3.3-1.9-9.1-1.7-12.9.5l-22.4 12.9c-2.1 1.2-3.2 2.7-3.2 4.2v10.8c-.1 1.3.7 2.5 2.2 3.4l1.2.7" stroke="#7765AD" stroke-width="1.4" stroke-miterlimit="10" stroke-linecap="round" stroke-linejoin="round"/><path d="M569.9 384.4l-.4.2c-3.8 2.2-9.6 2.4-12.9.5L532.1 371c-3.3-1.9-2.9-5.3.9-7.5l22.4-12.9c3.8-2.2 9.6-2.4 12.9-.5l24.5 14.1c3.3 1.9 2.9 5.3-.9 7.5l-15.3 8.8" fill="#ACC8E8"/><path d="M569.9 384.4l-.4.2c-3.8 2.2-9.6 2.4-12.9.5L532.1 371c-3.3-1.9-2.9-5.3.9-7.5l22.4-12.9c3.8-2.2 9.6-2.4 12.9-.5l24.5 14.1c3.3 1.9 2.9 5.3-.9 7.5l-15.3 8.8" stroke="#7765AD" stroke-width="1.4" stroke-miterlimit="10" stroke-linecap="round" stroke-linejoin="round"/><path d="M567.4 375.4c-.3 0-.6 0-.9-.1-1-.2-1.699-.7-1.899-1.4l-.5-2-.5.3c-.6.3-1.301.5-2.101.5s-1.599-.2-2.199-.5l-11.5-6.7c-.6-.3-.901-.8-.901-1.3s.301-1 .901-1.3c.2-.1.5-.2.8-.2.3 0 .599.1.799.2.2.1.401.3.401.6 0 .2-.101.4-.401.6l-.099.1-.1.2.199.1h.1l11.5 6.7c.1.1.3.1.5.1s.4 0 .5-.1l2.201-1.3c.2-.1.499-.2.799-.2h.4c.4.1.801.3.801.6l.799 3.4.301-.1v.1h-.1.199c.1 0 .201 0 .301-.1l6.9-4h-.5l-5.9-.5c-.5 0-.8-.2-1-.5-.1-.1-.1-.3-.1-.4 0-.2.199-.3.399-.4l2.201-1.3.1-.1.099-.2h-.199-.1l-11.5-6.7c-.1-.1-.3-.1-.5-.1s-.4 0-.5.1l-4.4 2.5c-.2.1-.501.2-.801.2-.3 0-.599-.1-.799-.2-.2-.1-.4-.3-.4-.6 0-.2.1-.4.4-.6l4.399-2.5c.6-.3 1.301-.5 2.101-.5s1.6.2 2.2.5l11.5 6.7c.6.3.9.8.9 1.3s-.301.9-.801 1.2l-.4.2 3.201.3c1.1.1 1.899.5 2.299 1.1.2.3.201.6.101.8-.1.4-.4.7-.8.9l-6.7 3.8c-.3.6-.901.8-1.701.8z" fill="#7765AD"/><path d="M344.399 380.5c-1.3 8-2.9 15.9-5.2 23.6-1.3 4.3-3.599 9.3-8.099 9.8-3.2-3.5-8.901-4.6-13.201-2.4-4.3 2.1-6.799 7.3-5.899 12-5.5 1.9-9.4 7.8-8.9 13.6.2 2.7 1.399 5.2 3.099 7.2h-.8c-1.9.1-3.599 1-4.799 2.5-1.2 1.4-1.801 3.3-1.701 5.1.3 3.7 3.4 6.5 7 6.5h.601c1.2-.1 2.199-.5 3.199-1 1.8 1.5 4.201 2.4 6.801 2.4 1.8 0 3.5-.5 5-1.3.9.4 1.799.7 2.699.9 5 1 10.6-1.5 13.1-6 3.6 2.7 8.8 2.9 12.6.6 1.8 4.2 7.1 6.5 11.4 5 .6 6.2 6.7 11.3 12.9 10.9 6.2-.4 11.5-6.4 11.2-12.6 1.2.4 2.5.6 3.8.6 1.7 4.6 6.1 7.9 11.2 7.9 6.4 0 11.6-5 11.9-11.3 1.7-.2 3.3-1 4.4-2.3 1.1-1.3 1.7-3 1.6-4.8-.2-2.9-2.399-5.3-5.199-5.9.4-.8.7-1.6.9-2.5 1.2-5.1-.8-10.9-4.9-14.2-2.3-1.9-2.201-1.8-2.901-4.7-1.2-4.8-5.2-8.8-10-10-4.8-1.1-10.2.7-13.4 4.5-7.1-1.4-8.4-10.7-9-13.9-3.4-19.5-6.8-38.1-8.4-57.2-4.2-50.2-1.199-63.8-7.899-63.8-4 0-7 8.4-7 10-.1 8.4-.601 16.7-1.101 25.1-1.1 18.7-1.499 38-3.799 56.9" fill="#F7F6FB"/><path d="M345.1 376.1c0 .2 0 .4-.1.5l.1-.5z" fill="#F7F6FB"/><path d="M395.1 410.1c-4.6-.7-9.5 1.1-12.4 4.7-7.1-1.4-8.4-10.7-9-13.9-3.4-19.5-6.8-38.1-8.4-57.2-4.2-50.2-1.2-63.8-7.9-63.8-4 0-7 8.4-7 10-.1 8.4-.6 16.7-1.1 25.1-1.1 18.7-1.5 38-3.8 56.9" stroke="#7765AD" stroke-width="1.4" stroke-miterlimit="10" stroke-linecap="round" stroke-linejoin="round"/><path d="M344.399 380.5c-1.3 8-2.9 15.9-5.2 23.6-1.3 4.3-3.599 9.3-8.099 9.8-3.2-3.5-8.901-4.6-13.201-2.4-4.3 2.1-6.799 7.3-5.899 12-5.5 1.9-9.4 7.8-8.9 13.6.2 2.7 1.399 5.2 3.099 7.2h-.8c-1.9.1-3.599 1-4.799 2.5-1.2 1.4-1.801 3.3-1.701 5.1.3 3.7 3.4 6.5 7 6.5h.601c1.2-.1 2.199-.5 3.199-1 1.8 1.5 4.201 2.4 6.801 2.4 1.8 0 3.5-.5 5-1.3.9.4 1.799.7 2.699.9 5 1 10.6-1.5 13.1-6 3.6 2.7 8.8 2.9 12.6.6 1.8 4.2 7.1 6.5 11.4 5 .6 6.2 6.7 11.3 12.9 10.9 6.2-.4 11.5-6.4 11.2-12.6 1.2.4 2.5.6 3.8.6 1.7 4.6 6.1 7.9 11.2 7.9 6.4 0 11.6-5 11.9-11.3 1.7-.2 3.3-1 4.4-2.3 1.1-1.3 1.7-3 1.6-4.8-.2-2.9-2.399-5.3-5.199-5.9.4-.8.7-1.6.9-2.5 1.2-5.1-.8-10.9-4.9-14.2-2.3-1.9-2.201-1.8-2.901-4.7-.9-3.8-3.699-7.2-7.199-8.9M345.1 376.1c0 .2 0 .4-.1.5" stroke="#7765AD" stroke-width="1.4" stroke-miterlimit="10" stroke-linecap="round" stroke-linejoin="round"/><path d="M353.298 286.9c-1.2 10.7-1.499 15.7 3.701 37.1 3.3-20.5 3.5-23.3 2.1-37.1" fill="#DFDFEF"/><path d="M354.399 286.9c-.8 5.3-.9 7.7 2.3 18.3 2-10.1 2.1-11.5 1.3-18.3" fill="#F7F6FB"/><path d="M338.799 265.4l-.3-2.6c-.5-4.7.6-9.4 3.1-12.8l5.2-6.9c-1.3 12.5-1.4 18.9 1.7 26.9a63.3 63.3 0 01-6.4 5.4c-.9.7-2.1-.1-2.2-1.5l-.3-2.2" fill="#F26E6F"/><path d="M338.799 265.4l-.3-2.6c-.5-4.7.6-9.4 3.1-12.8l5.2-6.9c-1.3 12.5-1.4 18.9 1.7 26.9a63.3 63.3 0 01-6.4 5.4c-.9.7-2.1-.1-2.2-1.5l-.3-2.2" stroke="#7765AD" stroke-width="1.4" stroke-miterlimit="10" stroke-linecap="round" stroke-linejoin="round"/><path d="M369.498 242.3c1.5 6.7 1.9 13.9 1.1 22.3-.4 3.7-.9 7.4-1.7 11-.3 1.2-.6 2.4-1 3.6-.7 2-1.5 3.9-2.5 5.7-.2.4-.5.8-.8 1.2-4 5.6-11.4 7.9-16.7 0-1.2-1.8-2.3-4-3.2-6.8 0-.1 0-.1-.1-.2-1.1-3.5-1.8-7.2-2.3-10.9-.2-1.2-.3-2.3-.4-3.5-1.4-14.5.8-25.4 5.9-36.2.2-.5.5-1 .7-1.5 1.3-2.6 2.7-5.1 4.4-7.7.4-.6 1.4-2.3 3.3-4.8 1.6 2.1 2.6 3.6 3.3 4.8 1.5 2.5 2.9 4.9 4.1 7.3l.9 1.8c.8 1.7 1.6 3.5 2.3 5.3" fill="#F7F6FB"/><path d="M369.498 242.3c1.5 6.7 1.9 13.9 1.1 22.3-.4 3.7-.9 7.4-1.7 11-.3 1.2-.6 2.4-1 3.6-.7 2-1.5 3.9-2.5 5.7-.2.4-.5.8-.8 1.2-4 5.6-11.4 7.9-16.7 0-1.2-1.8-2.3-4-3.2-6.8 0-.1 0-.1-.1-.2-1.1-3.5-1.8-7.2-2.3-10.9-.2-1.2-.3-2.3-.4-3.5-1.4-14.5.8-25.4 5.9-36.2.2-.5.5-1 .7-1.5 1.3-2.6 2.7-5.1 4.4-7.7.4-.6 1.4-2.3 3.3-4.8 1.6 2.1 2.6 3.6 3.3 4.8 1.5 2.5 2.9 4.9 4.1 7.3l.9 1.8c.8 1.7 1.6 3.5 2.3 5.3M339.199 268.8v-.2" stroke="#7765AD" stroke-width="1.4" stroke-miterlimit="10" stroke-linecap="round" stroke-linejoin="round"/><path d="M368.5 238.1c.1.2.1.4.2.7l-.2-.7z" fill="#F7F6FB"/><path d="M368.5 238.1c.1.2.1.4.2.7" stroke="#7765AD" stroke-width="1.4" stroke-miterlimit="10" stroke-linecap="round" stroke-linejoin="round"/><path d="M364.599 285.8c-4 5.8-11.401 8.1-16.701 0 2.3.7 5.2 1.2 8.4 1.2 3.1 0 6.001-.4 8.301-1.2z" fill="#F26E6F" stroke="#7765AD" stroke-width="1.4" stroke-miterlimit="10" stroke-linecap="round" stroke-linejoin="round"/><path d="M367.499 259.5c-.3 12.6-1.101 19-5.101 26.1 2.2 3 4.301 5.4 5.601 6.8.8.9 2.099.4 2.399-.9l2.701-10.6c1.1-4.5.599-9.4-1.401-13.3l-4.199-8.1z" fill="#F26E6F" stroke="#7765AD" stroke-width="1.4" stroke-miterlimit="10" stroke-linecap="round" stroke-linejoin="round"/><path d="M350.799 253.8c-1.7 2.9-4.4 2.9-6.1 0-1.7-2.9-1.7-7.6 0-10.5 1.7-2.9 4.4-2.9 6 0 1.2 2 1.5 4.9 1 7.5" fill="#D0DEF2"/><path d="M350.799 253.8c-1.7 2.9-4.4 2.9-6.1 0-1.7-2.9-1.7-7.6 0-10.5 1.7-2.9 4.4-2.9 6 0 1.2 2 1.5 4.9 1 7.5" stroke="#7765AD" stroke-width="1.4" stroke-miterlimit="10" stroke-linecap="round" stroke-linejoin="round"/><path d="M345.2 260c.6-1.7 2.1-1.9 3.3-.5 1.2 1.4 1.6 3.9.9 5.6-.6 1.7-2.1 1.9-3.3.5-.6-.7-.9-1.6-1.1-2.6" fill="#D0DEF2"/><path d="M345.2 260c.6-1.7 2.1-1.9 3.3-.5 1.2 1.4 1.6 3.9.9 5.6-.6 1.7-2.1 1.9-3.3.5-.6-.7-.9-1.6-1.1-2.6" stroke="#7765AD" stroke-width="1.4" stroke-miterlimit="10" stroke-linecap="round" stroke-linejoin="round"/><path d="M364.599 228.3c-2.3 1.9-5.201 3.1-8.401 3.1s-6.1-1.1-8.3-3c.2-.5.501-1 .701-1.5 1.3-2.6 2.7-5.1 4.4-7.7.4-.6 1.399-2.3 3.299-4.8 1.6 2.1 2.601 3.6 3.301 4.8 1.5 2.5 2.899 4.9 4.099 7.3l.901 1.8z" fill="#F26E6F" stroke="#7765AD" stroke-width="1.4" stroke-miterlimit="10" stroke-linecap="round" stroke-linejoin="round"/><path d="M372.999 467.9c-5.5 0-10.6-4.4-11.1-9.6l-.1-1-1 .3c-.8.3-1.6.4-2.5.4-3.3 0-6.4-1.9-7.6-4.7l-.4-.8-.8.4c-1.5.9-3.4 1.4-5.3 1.4-2.3 0-4.5-.7-6.2-1.9l-.3-.2c1.3-.8 2.4-1.9 3.2-3.1 1.7 1 3.8 1.6 6 1.6 1.8 0 3.5-.4 5-1.1 1.6 2.7 4.8 4.5 8.1 4.5.7 0 1.3-.1 1.9-.2 1 5.2 6.1 9.4 11.7 9.4h.8c4-.3 7.5-2.7 9.4-6-.1 5.2-4.8 10.1-10.2 10.5-.1.1-.3.1-.6.1zm26.4-3.8c-4.6 0-8.7-2.8-10.3-7l-.2-.5h-.6c-1.2 0-2.4-.2-3.5-.6l-.3-.1c.4-1.1.7-2.2.8-3.4.7.2 1.4.3 2.1.3 1.8 4.2 6.1 7 10.8 7 6 0 10.9-4.3 11.6-9.9 1.5-.3 2.9-1 3.9-2.2.7-.8 1.2-1.7 1.4-2.6.5.8.8 1.6.9 2.5.1 1.5-.4 2.9-1.3 4-1 1.1-2.3 1.8-3.8 1.9l-.7.1v.7c-.2 5.4-5 9.8-10.8 9.8zm-82.1-5.8c-2.2 0-4.4-.8-6.1-2.1l-.4-.3-.5.3c-.8.5-1.8.8-2.8.9h-.5c-3.2 0-5.9-2.4-6.1-5.4-.1-1.6.4-3.1 1.4-4.3.7-.8 1.7-1.5 2.8-1.8-.1.5-.1.9 0 1.4.3 3.6 3.4 6.4 7.2 6.4h.6c.9-.1 1.9-.3 2.7-.8 1.8 1.3 4 2 6.2 2 1.6 0 3.2-.3 4.6-1 .8.3 1.5.5 2.3.7.7.1 1.4.2 2.2.2 2.1 0 4.2-.5 6-1.5-2 3.3-5.9 5.4-10 5.4-.7 0-1.3-.1-2-.2-.9-.2-1.7-.4-2.5-.8l-.4-.2-.3.2c-1.3.6-2.9.9-4.4.9z" fill="#DFDFEF"/><path d="M288.399 444.2c-2.5 0-4.7 1.3-6 3.2H282c-2.7 0-4.9 2.3-4.9 5.1 0 .4-.001.8.099 1.1-1.9.1-3.5 1.9-3.5 4 0 2.2 1.6 4 3.7 4 1.2 0 2.2-.6 2.9-1.5.5.2 1 .3 1.5.3 1.5 0 2.8-.8 3.5-2.1.9.4 2 .7 3.1.7 4 0 7.3-3.3 7.3-7.5s-3.2-7.3-7.3-7.3z" fill="#F7F6FB"/><path d="M292.001 445.9c-.2-.1-.401.1-.301.3 1 1.1 1.5 2.6 1.5 4.2 0 3.5-2.8 6.4-6.3 6.4-.9 0-1.7-.2-2.5-.5-.1 0-.2 0-.2.1-.7 1-1.7 1.7-3 1.7-.4 0-.799-.1-1.199-.2-.1 0-.201 0-.201.1-.6.7-1.4 1.2-2.4 1.2-1.4 0-2.5-1-3-2.3 0-.1-.1-.1-.2 0-.3 2.3 1.301 4.3 3.401 4.3 1 0 1.999-.5 2.599-1.3.1-.1.1-.1.2-.1.4.1.8.2 1.3.2 1.3 0 2.5-.7 3.2-1.8 0-.1.101-.1.201-.1.8.4 1.799.6 2.699.6 3.8 0 6.801-3.1 6.801-7 .3-2.5-.9-4.6-2.6-5.8z" fill="#DFDFEF"/><path d="M278.299 461.7c.8-.2 1.5-.7 1.9-1.4.5.2 1 .3 1.5.3 1.5 0 2.8-.8 3.5-2.1.9.4 2 .7 3.1.7 4 0 7.3-3.3 7.3-7.5s-3.3-7.5-7.3-7.5M275.6 461.3c.1 0 .199.1.299.1M284.399 445.4c-.8.5-1.5 1.2-2.1 2.1h-.4c-2.7 0-4.899 2.3-4.899 5.1 0 .4 0 .8.1 1.1-1.9.1-3.5 1.9-3.5 4 0 .3-.001.6.099.8" stroke="#7765AD" stroke-width="1.4" stroke-miterlimit="10" stroke-linecap="round" stroke-linejoin="round"/><path d="M416.399 455.3c-1.2-5-6.3-8-11.3-6.8-2.1.5-3.8 1.7-5.1 3.3-2.6-1.3-5.6-1.7-8.6-.9-6.8 1.7-10.9 8.5-9.2 15.3 1.7 6.8 8.5 10.9 15.3 9.2 3.3-.8 6-2.9 7.7-5.6.4 0 .9 0 1.3-.2 1.7-.4 3-1.7 3.6-3.2 4.7-1.4 7.5-6.3 6.3-11.1z" fill="#F7F6FB"/><path d="M409.199 465.7c-.1 0-.199.1-.199.2-.5 1.2-1.6 2.2-3 2.6-.3.1-.6.1-.9.1-.1 0-.2.1-.3.2-1.4 2.2-3.7 4-6.5 4.7-2.1.5-4.1.4-6-.2-.4-.1-.3-.7.1-.7.9 0 1.8-.1 2.6-.3 2.8-.7 5-2.4 6.5-4.7.1-.1.2-.1.3-.2.3 0 .599-.1.899-.1 1.4-.4 2.5-1.3 3-2.6 0-.1.101-.2.201-.2 3.9-1.3 6.2-5.4 5.2-9.5-.4-1.5-1.2-2.8-2.2-3.8-.3-.2-.001-.7.299-.6 2.5.8 4.501 2.9 5.201 5.6 1 4.1-1.301 8.2-5.201 9.5z" fill="#DFDFEF"/><path d="M403.298 449.2c-1.3.6-2.399 1.5-3.299 2.6-2.6-1.3-5.601-1.7-8.601-.9-6.1 1.5-10 7.2-9.5 13.2M405.399 448.5c-.1 0-.199 0-.299.1M382.299 466.2c1.7 6.8 8.5 10.9 15.3 9.2 3.3-.8 6-2.9 7.7-5.6.4 0 .9 0 1.3-.2 1.7-.4 3-1.7 3.6-3.2 4.7-1.4 7.5-6.3 6.3-11.1-1.1-4.2-4.8-7-9-7" stroke="#7765AD" stroke-width="1.4" stroke-miterlimit="10" stroke-linecap="round" stroke-linejoin="round"/><path d="M380.5 420.2c.4-3 2.1-5.7 4.4-7.5l-4.4 7.5z" fill="#F7F6FB"/><path d="M380.5 420.2c.4-3 2.1-5.7 4.4-7.5" stroke="#7765AD" stroke-width="1.4" stroke-miterlimit="10" stroke-linecap="round" stroke-linejoin="round"/><path d="M410.5 441.5c.4-.1.7-.1 1.1-.1 1 0 2 .2 2.9.6" fill="#F7F6FB"/><path d="M410.5 441.5c.4-.1.7-.1 1.1-.1 1 0 2 .2 2.9.6" stroke="#7765AD" stroke-width="1.4" stroke-miterlimit="10" stroke-linecap="round" stroke-linejoin="round"/><path d="M340.198 449.1c1.6-2.4 2.5-5.3 2.5-8.4 0-8.7-6.999-15.7-15.699-15.7-2 0-3.801.4-5.601 1 2.4-1.7 5.3-2.6 8.4-2.6 8.2 0 14.9 6.7 14.9 14.9.1 4.3-1.6 8.1-4.5 10.8zM383.1 448.2c-.8-1.9-2.2-3.5-4.1-4.7-5.1-3.2-12-1.6-15.2 3.6-.8 1.2-1.3 2.5-1.5 3.8-.1-2.1.5-4.2 1.7-6.1 3.1-5 9.6-6.5 14.5-3.4 2.5 1.6 4.1 4.1 4.6 6.8zM393.399 439.8c-.5-1.1-1.299-2.1-2.399-2.7-3-1.9-7-1-9 2.1-.4.7-.7 1.4-.9 2.2 0-1.2.3-2.5 1-3.6 1.9-2.9 5.699-3.8 8.599-2 1.4 1 2.4 2.4 2.7 4zM360.198 422.4c-1.1-.4-2.4-.5-3.6-.2-3.5.9-5.6 4.4-4.7 8 .2.8.5 1.5 1 2.2-.9-.8-1.6-1.9-1.9-3.2-.8-3.4 1.1-6.8 4.5-7.6 1.6-.4 3.3-.1 4.7.8z" fill="#DFDFEF"/><path d="M405.399 469.6c-.8-.1-1.5-.4-2.1-.8" stroke="#7765AD" stroke-width="1.4" stroke-miterlimit="10" stroke-linecap="round" stroke-linejoin="round"/><path d="M314.6 379.2a2.1 2.1 0 100-4.2 2.1 2.1 0 000 4.2z" fill="#F9B7B8"/><path d="M289.398 411.3a2 2 0 100-4 2 2 0 000 4z" fill="#7CCED0"/><path d="M441.698 441.9a1.801 1.801 0 100-3.602 1.801 1.801 0 000 3.602z" fill="#F9B7B8"/><path d="M450.1 418.1a1.1 1.1 0 100-2.2 1.1 1.1 0 000 2.2z" fill="#A5B9E0"/><path d="M399.1 388.1a1.1 1.1 0 100-2.2 1.1 1.1 0 000 2.2z" fill="#7CCED0"/><path d="M324.699 393.3a1.4 1.4 0 100-2.8 1.4 1.4 0 000 2.8zM287.1 429.1a1.1 1.1 0 100-2.2 1.1 1.1 0 000 2.2z" fill="#A5B9E0"/><path d="M306.1 409.1a1.1 1.1 0 100-2.2 1.1 1.1 0 000 2.2z" fill="#F9B7B8"/><path d="M276.1 388.1a1.1 1.1 0 100-2.2 1.1 1.1 0 000 2.2z" fill="#7CCED0"/><path d="M335.199 473.6a3.1 3.1 0 100-6.2 3.1 3.1 0 000 6.2z" fill="#F7F6FB"/><path d="M338.499 470.3c0 1.7-1.4 3.1-3.1 3.1-1.7 0-3.1-1.4-3.1-3.1 0-.3 0-.6.1-.8.3 1.4 1.6 2.5 3.1 2.5 1.4 0 2.7-1 3-2.3v.6z" fill="#DFDFEF"/><path d="M335.199 473.6a3.1 3.1 0 100-6.2 3.1 3.1 0 000 6.2z" stroke="#7765AD" stroke-width="1.4" stroke-miterlimit="10" stroke-linecap="round" stroke-linejoin="round"/><path d="M344.399 380.5c-1.3 8-2.9 15.9-5.2 23.6-1.3 4.3-3.599 9.3-8.099 9.8-3.2-3.5-8.901-4.6-13.201-2.4-4.3 2.1-6.799 7.3-5.899 12-5.5 1.9-9.4 7.8-8.9 13.6.2 2.7 1.399 5.2 3.099 7.2h-.8c-1.9.1-3.599 1-4.799 2.5-1.2 1.4-1.801 3.3-1.701 5.1.3 3.7 3.4 6.5 7 6.5h.601c1.2-.1 2.199-.5 3.199-1 1.8 1.5 4.201 2.4 6.801 2.4 1.8 0 3.5-.5 5-1.3.9.4 1.799.7 2.699.9 5 1 10.6-1.5 13.1-6 3.6 2.7 8.8 2.9 12.6.6 1.8 4.2 7.1 6.5 11.4 5 .6 6.2 6.7 11.3 12.9 10.9 6.2-.4 11.5-6.4 11.2-12.6 1.2.4 2.5.6 3.8.6 1.7 4.6 6.1 7.9 11.2 7.9 6.4 0 11.6-5 11.9-11.3 1.7-.2 3.3-1 4.4-2.3 1.1-1.3 1.7-3 1.6-4.8-.2-2.9-2.399-5.3-5.199-5.9.4-.8.7-1.6.9-2.5 1.2-5.1-.8-10.9-4.9-14.2-2.3-1.9-2.201-1.8-2.901-4.7-1.2-4.8-5.2-8.8-10-10-4.8-1.1-10.2.7-13.4 4.5-7.1-1.4-8.4-10.7-9-13.9-3.4-19.5-6.8-38.1-8.4-57.2-4.2-50.2-1.199-63.8-7.899-63.8-4 0-7 8.4-7 10-.1 8.4-.601 16.7-1.101 25.1-1.1 18.7-1.499 38-3.799 56.9" fill="#F7F6FB"/><path d="M345.1 376.1c0 .2 0 .4-.1.5l.1-.5z" fill="#F7F6FB"/><path d="M395.1 410.1c-4.6-.7-9.5 1.1-12.4 4.7-7.1-1.4-8.4-10.7-9-13.9-3.4-19.5-6.8-38.1-8.4-57.2-4.2-50.2-1.2-63.8-7.9-63.8-4 0-7 8.4-7 10-.1 8.4-.6 16.7-1.1 25.1-1.1 18.7-1.5 38-3.8 56.9" stroke="#7765AD" stroke-width="1.4" stroke-miterlimit="10" stroke-linecap="round" stroke-linejoin="round"/><path d="M344.399 380.5c-1.3 8-2.9 15.9-5.2 23.6-1.3 4.3-3.599 9.3-8.099 9.8-3.2-3.5-8.901-4.6-13.201-2.4-4.3 2.1-6.799 7.3-5.899 12-5.5 1.9-9.4 7.8-8.9 13.6.2 2.7 1.399 5.2 3.099 7.2h-.8c-1.9.1-3.599 1-4.799 2.5-1.2 1.4-1.801 3.3-1.701 5.1.3 3.7 3.4 6.5 7 6.5h.601c1.2-.1 2.199-.5 3.199-1 1.8 1.5 4.201 2.4 6.801 2.4 1.8 0 3.5-.5 5-1.3.9.4 1.799.7 2.699.9 5 1 10.6-1.5 13.1-6 3.6 2.7 8.8 2.9 12.6.6 1.8 4.2 7.1 6.5 11.4 5 .6 6.2 6.7 11.3 12.9 10.9 6.2-.4 11.5-6.4 11.2-12.6 1.2.4 2.5.6 3.8.6 1.7 4.6 6.1 7.9 11.2 7.9 6.4 0 11.6-5 11.9-11.3 1.7-.2 3.3-1 4.4-2.3 1.1-1.3 1.7-3 1.6-4.8-.2-2.9-2.399-5.3-5.199-5.9.4-.8.7-1.6.9-2.5 1.2-5.1-.8-10.9-4.9-14.2-2.3-1.9-2.201-1.8-2.901-4.7-.9-3.8-3.699-7.2-7.199-8.9" stroke="#7765AD" stroke-width="1.4" stroke-miterlimit="10" stroke-linecap="round" stroke-linejoin="round"/><path d="M315.599 429.8c-2.3-2.1-3.701-5-3.701-8.4v-.5" fill="#F7F6FB"/><path d="M315.599 429.8c-2.3-2.1-3.701-5-3.701-8.4v-.5" stroke="#7765AD" stroke-width="1.4" stroke-miterlimit="10" stroke-linecap="round" stroke-linejoin="round"/><path d="M319.5 432.1c-.3-.1-.7-.2-1-.4l1 .4z" fill="#F7F6FB"/><path d="M319.5 432.1c-.3-.1-.7-.2-1-.4M345.1 376.1c0 .2 0 .4-.1.5" stroke="#7765AD" stroke-width="1.4" stroke-miterlimit="10" stroke-linecap="round" stroke-linejoin="round"/><path d="M353.298 286.9c-1.2 10.7-1.499 15.7 3.701 37.1 3.3-20.5 3.5-23.3 2.1-37.1" fill="#DFDFEF"/><path d="M354.399 286.9c-.8 5.3-.9 7.7 2.3 18.3 2-10.1 2.1-11.5 1.3-18.3" fill="#F7F6FB"/><path d="M338.799 265.4l-.3-2.6c-.5-4.7.6-9.4 3.1-12.8l5.2-6.9c-1.3 12.5-1.4 18.9 1.7 26.9a63.3 63.3 0 01-6.4 5.4c-.9.7-2.1-.1-2.2-1.5l-.3-2.2" fill="#F26E6F"/><path d="M338.799 265.4l-.3-2.6c-.5-4.7.6-9.4 3.1-12.8l5.2-6.9c-1.3 12.5-1.4 18.9 1.7 26.9a63.3 63.3 0 01-6.4 5.4c-.9.7-2.1-.1-2.2-1.5l-.3-2.2" stroke="#7765AD" stroke-width="1.4" stroke-miterlimit="10" stroke-linecap="round" stroke-linejoin="round"/><path d="M369.498 242.3c1.5 6.7 1.9 13.9 1.1 22.3-.4 3.7-.9 7.4-1.7 11-.3 1.2-.6 2.4-1 3.6-.7 2-1.5 3.9-2.5 5.7-.2.4-.5.8-.8 1.2-4 5.6-11.4 7.9-16.7 0-1.2-1.8-2.3-4-3.2-6.8 0-.1 0-.1-.1-.2-1.1-3.5-1.8-7.2-2.3-10.9-.2-1.2-.3-2.3-.4-3.5-1.4-14.5.8-25.4 5.9-36.2.2-.5.5-1 .7-1.5 1.3-2.6 2.7-5.1 4.4-7.7.4-.6 1.4-2.3 3.3-4.8 1.6 2.1 2.6 3.6 3.3 4.8 1.5 2.5 2.9 4.9 4.1 7.3l.9 1.8c.8 1.7 1.6 3.5 2.3 5.3" fill="#F7F6FB"/><path d="M369.498 242.3c1.5 6.7 1.9 13.9 1.1 22.3-.4 3.7-.9 7.4-1.7 11-.3 1.2-.6 2.4-1 3.6-.7 2-1.5 3.9-2.5 5.7-.2.4-.5.8-.8 1.2-4 5.6-11.4 7.9-16.7 0-1.2-1.8-2.3-4-3.2-6.8 0-.1 0-.1-.1-.2-1.1-3.5-1.8-7.2-2.3-10.9-.2-1.2-.3-2.3-.4-3.5-1.4-14.5.8-25.4 5.9-36.2.2-.5.5-1 .7-1.5 1.3-2.6 2.7-5.1 4.4-7.7.4-.6 1.4-2.3 3.3-4.8 1.6 2.1 2.6 3.6 3.3 4.8 1.5 2.5 2.9 4.9 4.1 7.3l.9 1.8c.8 1.7 1.6 3.5 2.3 5.3M339.199 268.8v-.2" stroke="#7765AD" stroke-width="1.4" stroke-miterlimit="10" stroke-linecap="round" stroke-linejoin="round"/><path d="M368.5 238.1c.1.2.1.4.2.7l-.2-.7z" fill="#F7F6FB"/><path d="M368.5 238.1c.1.2.1.4.2.7" stroke="#7765AD" stroke-width="1.4" stroke-miterlimit="10" stroke-linecap="round" stroke-linejoin="round"/><path d="M364.599 285.8c-4 5.8-11.401 8.1-16.701 0 2.3.7 5.2 1.2 8.4 1.2 3.1 0 6.001-.4 8.301-1.2z" fill="#F26E6F" stroke="#7765AD" stroke-width="1.4" stroke-miterlimit="10" stroke-linecap="round" stroke-linejoin="round"/><path d="M367.499 259.5c-.3 12.6-1.101 19-5.101 26.1 2.2 3 4.301 5.4 5.601 6.8.8.9 2.099.4 2.399-.9l2.701-10.6c1.1-4.5.599-9.4-1.401-13.3l-4.199-8.1z" fill="#F26E6F" stroke="#7765AD" stroke-width="1.4" stroke-miterlimit="10" stroke-linecap="round" stroke-linejoin="round"/><path d="M350.799 253.8c-1.7 2.9-4.4 2.9-6.1 0-1.7-2.9-1.7-7.6 0-10.5 1.7-2.9 4.4-2.9 6 0 1.2 2 1.5 4.9 1 7.5" fill="#D0DEF2"/><path d="M350.799 253.8c-1.7 2.9-4.4 2.9-6.1 0-1.7-2.9-1.7-7.6 0-10.5 1.7-2.9 4.4-2.9 6 0 1.2 2 1.5 4.9 1 7.5" stroke="#7765AD" stroke-width="1.4" stroke-miterlimit="10" stroke-linecap="round" stroke-linejoin="round"/><path d="M345.4 259.8c.8-1.6 2.3-1.7 3.3-.2s1.2 4.1.5 5.7c-.8 1.6-2.3 1.7-3.3.2-.5-.7-.8-1.7-.9-2.7" fill="#D0DEF2"/><path d="M345.4 259.8c.8-1.6 2.3-1.7 3.3-.2s1.2 4.1.5 5.7c-.8 1.6-2.3 1.7-3.3.2-.5-.7-.8-1.7-.9-2.7" stroke="#7765AD" stroke-width="1.4" stroke-miterlimit="10" stroke-linecap="round" stroke-linejoin="round"/><path d="M364.599 228.3c-2.3 1.9-5.201 3.1-8.401 3.1s-6.1-1.1-8.3-3c.2-.5.501-1 .701-1.5 1.3-2.6 2.7-5.1 4.4-7.7.4-.6 1.399-2.3 3.299-4.8 1.6 2.1 2.601 3.6 3.301 4.8 1.5 2.5 2.899 4.9 4.099 7.3l.901 1.8z" fill="#F26E6F" stroke="#7765AD" stroke-width="1.4" stroke-miterlimit="10" stroke-linecap="round" stroke-linejoin="round"/><path d="M372.999 467.9c-5.5 0-10.6-4.4-11.1-9.6l-.1-1-1 .3c-.8.3-1.6.4-2.5.4-3.3 0-6.4-1.9-7.6-4.7l-.4-.8-.8.4c-1.5.9-3.4 1.4-5.3 1.4-2.3 0-4.5-.7-6.2-1.9l-.3-.2c1.3-.8 2.4-1.9 3.2-3.1 1.7 1 3.8 1.6 6 1.6 1.8 0 3.5-.4 5-1.1 1.6 2.7 4.8 4.5 8.1 4.5.7 0 1.3-.1 1.9-.2 1 5.2 6.1 9.4 11.7 9.4h.8c4-.3 7.5-2.7 9.4-6-.1 5.2-4.8 10.1-10.2 10.5-.1.1-.3.1-.6.1zm26.4-3.8c-4.6 0-8.7-2.8-10.3-7l-.2-.5h-.6c-1.2 0-2.4-.2-3.5-.6l-.3-.1c.4-1.1.7-2.2.8-3.4.7.2 1.4.3 2.1.3 1.8 4.2 6.1 7 10.8 7 6 0 10.9-4.3 11.6-9.9 1.5-.3 2.9-1 3.9-2.2.7-.8 1.2-1.7 1.4-2.6.5.8.8 1.6.9 2.5.1 1.5-.4 2.9-1.3 4-1 1.1-2.3 1.8-3.8 1.9l-.7.1v.7c-.2 5.4-5 9.8-10.8 9.8zm-82.1-5.8c-2.2 0-4.4-.8-6.1-2.1l-.4-.3-.5.3c-.8.5-1.8.8-2.8.9h-.5c-3.2 0-5.9-2.4-6.1-5.4-.1-1.6.4-3.1 1.4-4.3.7-.8 1.7-1.5 2.8-1.8-.1.5-.1.9 0 1.4.3 3.6 3.4 6.4 7.2 6.4h.6c.9-.1 1.9-.3 2.7-.8 1.8 1.3 4 2 6.2 2 1.6 0 3.2-.3 4.6-1 .8.3 1.5.5 2.3.7.7.1 1.4.2 2.2.2 2.1 0 4.2-.5 6-1.5-2 3.3-5.9 5.4-10 5.4-.7 0-1.3-.1-2-.2-.9-.2-1.7-.4-2.5-.8l-.4-.2-.3.2c-1.3.6-2.9.9-4.4.9z" fill="#DFDFEF"/><path d="M288.399 444.2c-2.5 0-4.7 1.3-6 3.2H282c-2.7 0-4.9 2.3-4.9 5.1 0 .4-.001.8.099 1.1-1.9.1-3.5 1.9-3.5 4 0 2.2 1.6 4 3.7 4 1.2 0 2.2-.6 2.9-1.5.5.2 1 .3 1.5.3 1.5 0 2.8-.8 3.5-2.1.9.4 2 .7 3.1.7 4 0 7.3-3.3 7.3-7.5s-3.2-7.3-7.3-7.3z" fill="#F7F6FB"/><path d="M292.001 445.9c-.2-.1-.401.1-.301.3 1 1.1 1.5 2.6 1.5 4.2 0 3.5-2.8 6.4-6.3 6.4-.9 0-1.7-.2-2.5-.5-.1 0-.2 0-.2.1-.7 1-1.7 1.7-3 1.7-.4 0-.799-.1-1.199-.2-.1 0-.201 0-.201.1-.6.7-1.4 1.2-2.4 1.2-1.4 0-2.5-1-3-2.3 0-.1-.1-.1-.2 0-.3 2.3 1.301 4.3 3.401 4.3 1 0 1.999-.5 2.599-1.3.1-.1.1-.1.2-.1.4.1.8.2 1.3.2 1.3 0 2.5-.7 3.2-1.8 0-.1.101-.1.201-.1.8.4 1.799.6 2.699.6 3.8 0 6.801-3.1 6.801-7 .3-2.5-.9-4.6-2.6-5.8z" fill="#DFDFEF"/><path d="M278 461.7c.9-.2 1.6-.7 2.2-1.4.5.2 1 .3 1.5.3 1.5 0 2.8-.8 3.5-2.1.9.4 2 .7 3.1.7 4 0 7.3-3.3 7.3-7.5s-3.3-7.5-7.3-7.5h-.8M275.6 461.3c.1 0 .199.1.299.1M284.799 445.2c-1 .6-1.9 1.4-2.5 2.3h-.4c-2.7 0-4.899 2.3-4.899 5.1 0 .4 0 .8.1 1.1-1.9.1-3.5 1.9-3.5 4 0 .7.2 1.4.5 2" stroke="#7765AD" stroke-width="1.4" stroke-miterlimit="10" stroke-linecap="round" stroke-linejoin="round"/><path d="M416.399 455.3c-1.2-5-6.3-8-11.3-6.8-2.1.5-3.8 1.7-5.1 3.3-2.6-1.3-5.6-1.7-8.6-.9-6.8 1.7-10.9 8.5-9.2 15.3 1.7 6.8 8.5 10.9 15.3 9.2 3.3-.8 6-2.9 7.7-5.6.4 0 .9 0 1.3-.2 1.7-.4 3-1.7 3.6-3.2 4.7-1.4 7.5-6.3 6.3-11.1z" fill="#F7F6FB"/><path d="M409.199 465.7c-.1 0-.199.1-.199.2-.5 1.2-1.6 2.2-3 2.6-.3.1-.6.1-.9.1-.1 0-.2.1-.3.2-1.4 2.2-3.7 4-6.5 4.7-2.1.5-4.1.4-6-.2-.4-.1-.3-.7.1-.7.9 0 1.8-.1 2.6-.3 2.8-.7 5-2.4 6.5-4.7.1-.1.2-.1.3-.2.3 0 .599-.1.899-.1 1.4-.4 2.5-1.3 3-2.6 0-.1.101-.2.201-.2 3.9-1.3 6.2-5.4 5.2-9.5-.4-1.5-1.2-2.8-2.2-3.8-.3-.2-.001-.7.299-.6 2.5.8 4.501 2.9 5.201 5.6 1 4.1-1.301 8.2-5.201 9.5z" fill="#DFDFEF"/><path d="M403.298 449.2c-1.3.6-2.399 1.5-3.299 2.6-2.6-1.3-5.601-1.7-8.601-.9-6.1 1.5-10 7.2-9.5 13.2M405.399 448.5c-.1 0-.199 0-.299.1M382.299 466.2c1.7 6.8 8.5 10.9 15.3 9.2 3.3-.8 6-2.9 7.7-5.6.4 0 .9 0 1.3-.2 1.7-.4 3-1.7 3.6-3.2 4.7-1.4 7.5-6.3 6.3-11.1-1.1-4.2-4.8-7-9-7" stroke="#7765AD" stroke-width="1.4" stroke-miterlimit="10" stroke-linecap="round" stroke-linejoin="round"/><path d="M380.5 420.2c.4-3 2.1-5.7 4.4-7.5l-4.4 7.5z" fill="#F7F6FB"/><path d="M380.5 420.2c.4-3 2.1-5.7 4.4-7.5" stroke="#7765AD" stroke-width="1.4" stroke-miterlimit="10" stroke-linecap="round" stroke-linejoin="round"/><path d="M410.5 441.5c.4-.1.7-.1 1.1-.1 1 0 2 .2 2.9.6" fill="#F7F6FB"/><path d="M410.5 441.5c.4-.1.7-.1 1.1-.1 1 0 2 .2 2.9.6" stroke="#7765AD" stroke-width="1.4" stroke-miterlimit="10" stroke-linecap="round" stroke-linejoin="round"/><path d="M340.198 449.1c1.6-2.4 2.5-5.3 2.5-8.4 0-8.7-6.999-15.7-15.699-15.7-2 0-3.801.4-5.601 1 2.4-1.7 5.3-2.6 8.4-2.6 8.2 0 14.9 6.7 14.9 14.9.1 4.3-1.6 8.1-4.5 10.8zM383.1 448.2c-.8-1.9-2.2-3.5-4.1-4.7-5.1-3.2-12-1.6-15.2 3.6-.8 1.2-1.3 2.5-1.5 3.8-.1-2.1.5-4.2 1.7-6.1 3.1-5 9.6-6.5 14.5-3.4 2.5 1.6 4.1 4.1 4.6 6.8zM393.399 439.8c-.5-1.1-1.299-2.1-2.399-2.7-3-1.9-7-1-9 2.1-.4.7-.7 1.4-.9 2.2 0-1.2.3-2.5 1-3.6 1.9-2.9 5.699-3.8 8.599-2 1.4 1 2.4 2.4 2.7 4zM360.198 422.4c-1.1-.4-2.4-.5-3.6-.2-3.5.9-5.6 4.4-4.7 8 .2.8.5 1.5 1 2.2-.9-.8-1.6-1.9-1.9-3.2-.8-3.4 1.1-6.8 4.5-7.6 1.6-.4 3.3-.1 4.7.8z" fill="#DFDFEF"/><path d="M405.399 469.6c-.8-.1-1.5-.4-2.1-.8" stroke="#7765AD" stroke-width="1.4" stroke-miterlimit="10" stroke-linecap="round" stroke-linejoin="round"/><path d="M314.6 379.2a2.1 2.1 0 100-4.2 2.1 2.1 0 000 4.2z" fill="#F9B7B8"/><path d="M289.398 411.3a2 2 0 100-4 2 2 0 000 4z" fill="#7CCED0"/><path d="M441.698 441.9a1.801 1.801 0 100-3.602 1.801 1.801 0 000 3.602z" fill="#F9B7B8"/><path d="M399.1 388.1a1.1 1.1 0 100-2.2 1.1 1.1 0 000 2.2z" fill="#7CCED0"/><path d="M324.699 393.3a1.4 1.4 0 100-2.8 1.4 1.4 0 000 2.8zM287.1 429.1a1.1 1.1 0 100-2.2 1.1 1.1 0 000 2.2z" fill="#A5B9E0"/><path d="M306.1 409.1a1.1 1.1 0 100-2.2 1.1 1.1 0 000 2.2z" fill="#F9B7B8"/><path d="M276.1 388.1a1.1 1.1 0 100-2.2 1.1 1.1 0 000 2.2z" fill="#7CCED0"/><path d="M335.199 473.6a3.1 3.1 0 100-6.2 3.1 3.1 0 000 6.2z" fill="#F7F6FB"/><path d="M338.499 470.3c0 1.7-1.4 3.1-3.1 3.1-1.7 0-3.1-1.4-3.1-3.1 0-.3 0-.6.1-.8.3 1.4 1.6 2.5 3.1 2.5 1.4 0 2.7-1 3-2.3v.6z" fill="#DFDFEF"/><path d="M335.199 473.6a3.1 3.1 0 100-6.2 3.1 3.1 0 000 6.2z" stroke="#7765AD" stroke-width="1.4" stroke-miterlimit="10" stroke-linecap="round" stroke-linejoin="round"/><path opacity=".1" d="M276.9 228.6c2-1.1 3.6-.2 3.6 2v102.1c0 .9-.599 1.9-1.399 2.4l-138.4 79.9c-.8.4-1.4.1-1.4-.8v-102c0-2.3 1.599-5 3.599-6.2l134-77.4z" fill="#A5B9E0" stroke="#7765AD" stroke-width="1.4" stroke-miterlimit="10" stroke-linecap="round" stroke-linejoin="round"/><path opacity=".07" d="M261.6 218.9c2-1.1 3.6-.2 3.6 2V323c0 .9-.6 1.9-1.4 2.4l-138.4 79.9c-.8.4-1.4.1-1.4-.8V302.4c0-2.3 1.6-5 3.6-6.2l134-77.3z" fill="#A5B9E0" stroke="#7765AD" stroke-width="1.4" stroke-miterlimit="10" stroke-linecap="round" stroke-linejoin="round"/><path d="M294.8 237.9l-4 101.5c0 .9-.601 1.9-1.401 2.4L154.7 423.5c-.8.4-5.1-1.7-5.1-2.6V318.8c0-2.3 1.6-5 3.6-6.2l134-77.4c1.9-1.1 7.6.4 7.6 2.7z" fill="#DFDFEF" stroke="#7765AD" stroke-width="1.4" stroke-miterlimit="10" stroke-linecap="round" stroke-linejoin="round"/><path d="M153.801 363.9v-43.3c0-2.3 1.599-5 3.599-6.2l134-77.4c2-1.1 3.6-.2 3.6 2v102.1c0 .9-.599 1.9-1.399 2.4l-138.4 79.9c-.8.4-1.4.1-1.4-.8v-46" fill="#F7F6FB"/><path d="M153.801 363.9v-43.3c0-2.3 1.599-5 3.599-6.2l134-77.4c2-1.1 3.6-.2 3.6 2v102.1c0 .9-.599 1.9-1.399 2.4l-138.4 79.9c-.8.4-1.4.1-1.4-.8v-46" stroke="#7765AD" stroke-width="1.4" stroke-miterlimit="10" stroke-linecap="round" stroke-linejoin="round"/><path d="M241 278.9l-87.199 50.3v-8.5c0-2.3 1.599-5 3.599-6.2l134-77.4c2-1.1 3.6-.2 3.6 2v8.5" fill="#F7F6FB"/><path d="M241 278.9l-87.199 50.3v-8.5c0-2.3 1.599-5 3.599-6.2l134-77.4c2-1.1 3.6-.2 3.6 2v8.5M283.599 254.2l-37.4 21.6" stroke="#7765AD" stroke-width="1.4" stroke-miterlimit="10" stroke-linecap="round" stroke-linejoin="round"/><path d="M160.999 320.001c.585-1.002.596-2.084.024-2.419-.572-.334-1.511.206-2.096 1.207-.585 1.002-.596 2.084-.024 2.419.572.334 1.51-.206 2.096-1.207zM164.847 317.718c.585-1.002.596-2.084.023-2.419-.572-.334-1.51.206-2.095 1.207-.586 1.002-.596 2.084-.024 2.419.572.334 1.51-.206 2.096-1.207zM168.78 315.486c.586-1.002.596-2.084.024-2.419-.572-.334-1.51.206-2.096 1.207-.585 1.002-.596 2.085-.024 2.419.573.335 1.511-.206 2.096-1.207z" fill="#DFDFEF" stroke="#7765AD" stroke-width="1.4" stroke-miterlimit="10" stroke-linecap="round" stroke-linejoin="round"/><g opacity=".3" stroke="#7765AD" stroke-width="1.4" stroke-linecap="round" stroke-linejoin="round"><path opacity=".3" d="M266.399 319.3l-1.299-.8"/><path opacity=".3" d="M262.699 317.1l-8.5-4.9" stroke-dasharray="2.8 2.8"/><path opacity=".3" d="M252.999 311.5l-1.3-.7"/></g><g opacity=".3" stroke="#7765AD" stroke-width="1.4" stroke-linecap="round" stroke-linejoin="round"><path opacity=".3" d="M306.899 269.199l-1.299-.699"/><path opacity=".3" d="M303.1 267.1l-8.5-4.9" stroke-dasharray="2.8 2.8"/><path opacity=".3" d="M293.399 261.5l-1.299-.8"/></g><g opacity=".3" stroke="#7765AD" stroke-width="1.4" stroke-linecap="round" stroke-linejoin="round"><path opacity=".3" d="M266.401 294l-1.299-.8"/><path opacity=".3" d="M262.801 291.9l-8-4.7" stroke-dasharray="2.66 2.66"/><path opacity=".3" d="M253.601 286.6l-1.3-.8"/></g><path d="M253.001 305.2c1.5-.9 2.701-.2 2.701 1.5v53.8c0 1.7-1.201 3.8-2.701 4.7l-70.699 40.7c-1.5.9-2.7.2-2.7-1.5v-53.8c0-1.7 1.2-3.8 2.7-4.7l70.699-40.7z" fill="#7765AD" stroke="#7765AD" stroke-width="1.4" stroke-miterlimit="10" stroke-linecap="round" stroke-linejoin="round"/><path opacity=".1" d="M232.301 293.5c1.5-.9 2.699-.2 2.699 1.5v53.8c0 1.7-1.199 3.8-2.699 4.7l-70.7 40.7c-1.5.9-2.701.2-2.701-1.5v-53.8c0-1.7 1.201-3.8 2.701-4.7l70.7-40.7z" fill="#7765AD"/><path d="M221.101 346.7L190.4 364.4c-.3.2-.599 0-.599-.5 0-.4.299-1 .599-1.2l30.701-17.701c.3-.2.6 0 .6.5s-.3 1.001-.6 1.201z" fill="#5E6AB1"/><path d="M239.102 336.2l-13.4 7.7c-.3.2-.6 0-.6-.5 0-.4.3-1 .6-1.2l13.4-7.701c.3-.2.6 0 .6.5s-.3 1.001-.6 1.201zM221 351.399l-16.1 9.3c-.3.2-.599 0-.599-.5 0-.4.299-1 .599-1.2l16.1-9.3c.3-.2.601 0 .601.5s-.301 1-.601 1.2zM201.201 362.799l-10.801 6.3c-.3.2-.599 0-.599-.5 0-.4.299-1 .599-1.2l10.801-6.3c.3-.2.6 0 .6.5s-.3 1-.6 1.2z" fill="#F6989A"/><path d="M239 340.999l-13.4 7.7c-.3.2-.6 0-.6-.5 0-.4.3-1 .6-1.2l13.4-7.7c.3-.2.6 0 .6.5 0 .4-.2 1-.6 1.2z" fill="#A29ACB"/><path d="M210 343.7l-19.6 11.299c-.3.2-.599 0-.599-.5 0-.4.299-.999.599-1.199l19.6-11.301c.3-.2.601 0 .601.5S210.3 343.6 210 343.7z" fill="#5E6AB1"/><path d="M221.701 336.9l-8.301 4.8c-.3.2-.599 0-.599-.5 0-.4.299-1 .599-1.2l8.301-4.8c.3-.2.6 0 .6.5.1.5-.2 1-.6 1.2z" fill="#A29ACB"/><path d="M245.5 323.199l-20 11.5c-.3.2-.6 0-.6-.5 0-.4.3-1 .6-1.2l20-11.5c.3-.2.601 0 .601.5s-.201 1-.601 1.2z" fill="#7CCED0"/><path d="M225.9 367.199l19.6-11.3c.3-.2.601-.7.601-1.2 0-.4-.301-.7-.601-.5l-19.6 11.3c-.3.2-.599.7-.599 1.2s.299.7.599.5z" fill="#5E6AB1"/><path d="M214.1 373.999l8.3-4.8c.3-.2.6-.7.6-1.2 0-.4-.3-.7-.6-.5l-8.3 4.8c-.3.2-.6.7-.6 1.2s.3.7.6.5z" fill="#7CCED0"/><path d="M190.301 387.699l20-11.5c.3-.2.6-.7.6-1.2 0-.4-.3-.7-.6-.5l-20 11.5c-.3.2-.6.7-.6 1.2s.3.7.6.5z" fill="#F6989A"/><path d="M202.901 352.499l-12.6 7.3c-.3.2-.6 0-.6-.5 0-.4.3-1 .6-1.2l12.6-7.3c.3-.2.6 0 .6.5s-.2 1-.6 1.2z" fill="#A29ACB"/><path d="M229.9 336.899l-24.3 14c-.3.2-.6 0-.6-.5 0-.4.3-1 .6-1.2l24.3-14c.3-.2.6 0 .6.5s-.3 1-.6 1.2z" fill="#7CCED0"/><path d="M247.8 326.599l-15.2 8.8c-.3.2-.6 0-.6-.5 0-.4.3-1 .6-1.2l15.2-8.8c.3-.2.6 0 .6.5s-.3 1-.6 1.2z" fill="#5E6AB1"/><path d="M235.202 364.9l12.6-7.3c.3-.2.599 0 .599.5 0 .4-.299 1-.599 1.2l-12.6 7.3c-.3.2-.6 0-.6-.5s.3-1.1.6-1.2z" fill="#7CCED0"/><path d="M208.202 380.399l24.299-14c.3-.2.601 0 .601.5 0 .4-.301 1-.601 1.2l-24.299 14c-.3.2-.6 0-.6-.5s.3-1 .6-1.2z" fill="#F9A46F"/><path d="M190.301 390.8l15.2-8.801c.3-.2.6 0 .6.5 0 .4-.3 1.001-.6 1.201l-15.2 8.799c-.3.2-.6 0-.6-.5s.3-.999.6-1.199z" fill="#A29ACB"/><path d="M221.101 365.3L190.4 383c-.3.2-.599 0-.599-.5 0-.4.299-1 .599-1.2l30.701-17.7c.3-.2.6 0 .6.5s-.3 1-.6 1.2z" fill="#F9A46F"/><path d="M239.102 354.9l-13.4 7.7c-.3.2-.6 0-.6-.5 0-.4.3-1 .6-1.2l13.4-7.7c.3-.2.6 0 .6.5s-.3 1-.6 1.2z" fill="#F6989A"/><path d="M202.901 371.099l-12.6 7.3c-.3.2-.6 0-.6-.5 0-.4.3-1 .6-1.2l12.6-7.3c.3-.2.6 0 .6.5s-.2 1-.6 1.2z" fill="#7CCED0"/><path d="M229.9 355.499l-24.3 14c-.3.2-.6 0-.6-.5 0-.4.3-1 .6-1.2l24.3-14c.3-.2.6 0 .6.5s-.3 1.1-.6 1.2z" fill="#5E6AB1"/><path d="M247.8 345.2l-15.2 8.799c-.3.2-.6 0-.6-.5 0-.4.3-.999.6-1.199l15.2-8.801c.3-.2.6 0 .6.5s-.3 1.001-.6 1.201z" fill="#7CCED0"/><path d="M200.601 367.799l-10.201 5.9c-.3.2-.599 0-.599-.5 0-.4.299-1 .599-1.2l10.201-5.9c.3-.2.6 0 .6.5s-.3 1-.6 1.2z" fill="#A29ACB"/><path d="M223 354.899l-19.9 11.5c-.3.2-.6 0-.6-.5 0-.4.3-1 .6-1.2l19.9-11.5c.3-.2.6 0 .6.5s-.3 1-.6 1.2z" fill="#F6989A"/><path d="M245.301 341.999l-19.901 11.5c-.3.2-.599 0-.599-.5 0-.4.299-1 .599-1.2l19.901-11.5c.3-.2.599 0 .599.5s-.299 1-.599 1.2z" fill="#F9A46F"/><g opacity=".3" stroke="#7765AD" stroke-width="1.4" stroke-linecap="round" stroke-linejoin="round"><path opacity=".3" d="M180.101 348.5l-1.3-.7"/><path opacity=".3" d="M176.201 346.3L161.9 338" stroke-dasharray="3.02 3.02"/><path opacity=".3" d="M160.601 337.2l-1.3-.7"/></g><g opacity=".3" stroke="#7765AD" stroke-width="1.4" stroke-linecap="round" stroke-linejoin="round"><path opacity=".3" d="M179.899 406.5l-1.299-.8"/><path opacity=".3" d="M176 404.2l-14.4-8.3" stroke-dasharray="3.02 3.02"/><path opacity=".3" d="M160.3 395.2l-1.3-.8"/></g><g opacity=".3" stroke="#7765AD" stroke-width="1.4" stroke-linecap="round" stroke-linejoin="round"><path opacity=".3" d="M254.8 305.699l-1.3-.699"/><path opacity=".3" d="M250.901 303.5l-14.299-8.3" stroke-dasharray="3.02 3.02"/><path opacity=".3" d="M235.201 294.4l-1.301-.7"/></g><g opacity=".3" stroke="#7765AD" stroke-width="1.4" stroke-linecap="round" stroke-linejoin="round"><path opacity=".3" d="M271.701 332.2l-1.301-.7"/><path opacity=".3" d="M267.9 330.1l-13.599-7.9" stroke-dasharray="2.85 2.85"/><path opacity=".3" d="M253.101 321.5l-1.3-.8"/></g><g opacity=".3" stroke="#7765AD" stroke-width="1.4" stroke-linecap="round" stroke-linejoin="round"><path opacity=".3" d="M271.701 358l-1.301-.8"/><path opacity=".3" d="M267.9 355.799l-13.599-7.9" stroke-dasharray="2.85 2.85"/><path opacity=".3" d="M253.101 347.2l-1.3-.7"/></g><g opacity=".3" stroke="#7765AD" stroke-width="1.4" stroke-linecap="round" stroke-linejoin="round"><path opacity=".3" d="M311.8 309.1l-1.3-.7"/><path opacity=".3" d="M308 307l-13.6-7.9" stroke-dasharray="2.85 2.85"/><path opacity=".3" d="M293.201 298.4l-1.301-.7"/></g><path opacity=".1" d="M289.4 262.6c.9-.5 1.701-.1 1.701 1v24.6c0 1.1-.701 2.3-1.701 2.9L252 312.7c-.9.5-1.699.1-1.699-1v-24.6c0-1.1.699-2.3 1.699-2.9l37.4-21.6zM289.4 298.1c.9-.5 1.701-.1 1.701 1v24.6c0 1.1-.701 2.3-1.701 2.9L252 348.2c-.9.5-1.699.1-1.699-1v-24.6c0-1.1.699-2.3 1.699-2.9l37.4-21.6z" fill="#7765AD"/><path d="M305.1 269.3c.9-.5 1.7-.1 1.7 1v24.6c0 1.1-.7 2.3-1.7 2.9l-37.4 21.6c-.9.5-1.7.1-1.7-1v-24.6c0-1.1.7-2.3 1.7-2.9l37.4-21.6z" fill="#DFDFEF" stroke="#7765AD" stroke-width="1.4" stroke-miterlimit="10" stroke-linecap="round" stroke-linejoin="round"/><path d="M273.199 295.2l25.3-14.6M273.199 299.6l25.3-14.6M273.199 304l25.3-14.5M273.199 308.499l7.9-4.6" stroke="#7765AD" stroke-width="1.4" stroke-miterlimit="10" stroke-linecap="round" stroke-linejoin="round"/><path d="M273.3 330.4c-.9.5-1.7 1.8-1.7 2.9v24.6c0 1.1.7 1.5 1.7 1l37.4-21.6c.9-.5 1.699-1.8 1.699-2.9v-24.6c0-1.1-.699-1.5-1.699-1l-37.4 21.6z" fill="#DFDFEF" stroke="#7765AD" stroke-width="1.4" stroke-miterlimit="10" stroke-linecap="round" stroke-linejoin="round"/><path d="M305.201 319.6L279.9 334.1M305.201 324L279.9 338.6M305.201 328.399l-25.301 14.6M305.201 332.8l-7.9 4.6M153.801 369.399v-1" stroke="#7765AD" stroke-width="1.4" stroke-miterlimit="10" stroke-linecap="round" stroke-linejoin="round"/><path d="M416.831 241.11c-.1-1 .5-2 1.7-2.7l19-11c2.6-1.5 7.1-1.3 10 .4l17.4 10c1.6.9 2.4 2.1 2.5 3.3v8.3c0 1-.5 1.9-1.7 2.6l-19 11c-2.6 1.5-7.1 1.3-10-.4l-17.4-10c-1.7-1-2.6-2.3-2.4-3.5v-8h-.1z" fill="#DFDFEF" stroke="#7765AD" stroke-width="1.4" stroke-miterlimit="10" stroke-linecap="round" stroke-linejoin="round"/><path d="M446.632 254.61l19-11c2.6-1.5 2.2-4.1-.7-5.8l-17.4-10c-3-1.7-7.5-1.9-10-.4l-19 11c-2.6 1.5-2.2 4.1.7 5.8l17.4 10c3 1.7 7.5 1.9 10 .4z" fill="#F7F6FB" stroke="#7765AD" stroke-width="1.4" stroke-miterlimit="10" stroke-linecap="round" stroke-linejoin="round"/><path d="M416.831 232.711c-.1-1 .5-2 1.7-2.7l19-11c2.6-1.5 7.1-1.3 10 .4l17.4 10c1.6.9 2.4 2.1 2.5 3.3v8.3c0 1-.5 1.9-1.7 2.6l-19 11c-2.6 1.5-7.1 1.3-10-.4l-17.4-10c-1.7-1-2.6-2.3-2.4-3.5v-8h-.1z" fill="#DFDFEF" stroke="#7765AD" stroke-width="1.4" stroke-miterlimit="10" stroke-linecap="round" stroke-linejoin="round"/><path d="M446.632 246.211l19-11c2.6-1.5 2.2-4.1-.7-5.8l-17.4-10c-3-1.7-7.5-1.9-10-.4l-19 11c-2.6 1.5-2.2 4.1.7 5.8l17.4 10c3 1.7 7.5 1.9 10 .4z" fill="#F7F6FB" stroke="#7765AD" stroke-width="1.4" stroke-miterlimit="10" stroke-linecap="round" stroke-linejoin="round"/><path d="M416.831 224.41c-.1-1 .5-2 1.7-2.7l19-11c2.6-1.5 7.1-1.3 10 .4l17.4 10c1.6.9 2.4 2.1 2.5 3.3v8.3c0 1-.5 1.9-1.7 2.6l-19 11c-2.6 1.5-7.1 1.3-10-.4l-17.4-10c-1.7-1-2.6-2.3-2.4-3.5v-8h-.1z" fill="#DFDFEF" stroke="#7765AD" stroke-width="1.4" stroke-miterlimit="10" stroke-linecap="round" stroke-linejoin="round"/><path d="M466.532 226.41c1.6-1.5 1.1-3.7-1.5-5.2l-17.401-10c-3-1.7-7.5-1.9-10-.4l-19 11c-2.6 1.5-2.199 4.1.701 5.8l17.4 10c3 1.7 7.5 1.9 10 .4l8.1-4.7" fill="#F7F6FB"/><path d="M466.532 226.41c1.6-1.5 1.1-3.7-1.5-5.2l-17.401-10c-3-1.7-7.5-1.9-10-.4l-19 11c-2.6 1.5-2.199 4.1.701 5.8l17.4 10c3 1.7 7.5 1.9 10 .4l8.1-4.7" stroke="#7765AD" stroke-width="1.4" stroke-miterlimit="10" stroke-linecap="round" stroke-linejoin="round"/><path d="M458.232 231.31l-11.6 6.7c-2.6 1.5-7.1 1.3-10-.4l-17.4-10c-1.7-1-2.6-2.3-2.4-3.5v-8c-.1-1 .5-2 1.7-2.7l19-11c2.6-1.5 7.1-1.3 10 .4l17.4 10c1.6.9 2.4 2.1 2.5 3.3v8.3c0 .9-.4 1.7-1.4 2.4" fill="#DFDFEF"/><path d="M458.232 231.31l-11.6 6.7c-2.6 1.5-7.1 1.3-10-.4l-17.4-10c-1.7-1-2.6-2.3-2.4-3.5v-8c-.1-1 .5-2 1.7-2.7l19-11c2.6-1.5 7.1-1.3 10 .4l17.4 10c1.6.9 2.4 2.1 2.5 3.3v8.3c0 .9-.4 1.7-1.4 2.4M461.133 229.611l.5-.3" stroke="#7765AD" stroke-width="1.4" stroke-miterlimit="10" stroke-linecap="round" stroke-linejoin="round"/><path d="M448.632 228.41l17-9.8c2.6-1.5 2.2-4.1-.7-5.8l-17.4-10c-3-1.7-7.5-1.9-10-.4l-19 11c-2.6 1.5-2.2 4.1.7 5.8l17.4 10c2.1 1.2 5 1.7 7.4 1.3" fill="#F7F6FB"/><path d="M448.632 228.41l17-9.8c2.6-1.5 2.2-4.1-.7-5.8l-17.4-10c-3-1.7-7.5-1.9-10-.4l-19 11c-2.6 1.5-2.2 4.1.7 5.8l17.4 10c2.1 1.2 5 1.7 7.4 1.3" stroke="#7765AD" stroke-width="1.4" stroke-miterlimit="10" stroke-linecap="round" stroke-linejoin="round"/><path d="M388.632 257.31c-.1-1 .5-2 1.7-2.7l19-11c2.6-1.5 7.1-1.3 10 .4l17.4 10c1.6.9 2.4 2.1 2.5 3.3v8.3c0 1-.5 1.9-1.7 2.6l-19 11c-2.6 1.5-7.1 1.3-10-.4l-17.4-10c-1.7-1-2.6-2.3-2.4-3.5v-8h-.1z" fill="#DFDFEF" stroke="#7765AD" stroke-width="1.4" stroke-miterlimit="10" stroke-linecap="round" stroke-linejoin="round"/><path d="M407.933 270.11l.5.3c3 1.7 7.5 1.9 10 .4l19-11c2.6-1.5 2.199-4.1-.701-5.8l-17.399-10c-3-1.7-7.5-1.9-10-.4l-19 11c-2.6 1.5-2.2 4.1.7 5.8l13.8 8" fill="#F7F6FB"/><path d="M407.933 270.11l.5.3c3 1.7 7.5 1.9 10 .4l19-11c2.6-1.5 2.199-4.1-.701-5.8l-17.399-10c-3-1.7-7.5-1.9-10-.4l-19 11c-2.6 1.5-2.2 4.1.7 5.8l13.8 8" stroke="#7765AD" stroke-width="1.4" stroke-miterlimit="10" stroke-linecap="round" stroke-linejoin="round"/><path d="M404.933 268.41l-13.801-8c-1.7-1-2.599-2.3-2.399-3.5v-8c-.1-1 .5-2 1.7-2.7l19-11c2.6-1.5 7.1-1.3 10 .4l17.4 10c1.6.9 2.4 2.1 2.5 3.3v8.3c0 1-.501 1.9-1.701 2.6l-19 11c-2.6 1.5-7.1 1.3-10-.4l-1-.6" fill="#DFDFEF"/><path d="M404.933 268.41l-13.801-8c-1.7-1-2.599-2.3-2.399-3.5v-8c-.1-1 .5-2 1.7-2.7l19-11c2.6-1.5 7.1-1.3 10 .4l17.4 10c1.6.9 2.4 2.1 2.5 3.3v8.3c0 1-.501 1.9-1.701 2.6l-19 11c-2.6 1.5-7.1 1.3-10-.4l-1-.6" stroke="#7765AD" stroke-width="1.4" stroke-miterlimit="10" stroke-linecap="round" stroke-linejoin="round"/><path d="M402.533 258.61l6 3.5c3 1.7 7.5 1.9 10 .4l19-11c2.6-1.5 2.199-4.1-.701-5.8l-17.4-10c-3-1.7-7.5-1.9-10-.4l-19 11c-2.6 1.5-2.2 4.1.7 5.8l2.901 1.6" fill="#F7F6FB"/><path d="M402.533 258.61l6 3.5c3 1.7 7.5 1.9 10 .4l19-11c2.6-1.5 2.199-4.1-.701-5.8l-17.4-10c-3-1.7-7.5-1.9-10-.4l-19 11c-2.6 1.5-2.2 4.1.7 5.8l2.901 1.6M397.934 256.01l.399.2" stroke="#7765AD" stroke-width="1.4" stroke-miterlimit="10" stroke-linecap="round" stroke-linejoin="round"/><path fill-rule="evenodd" clip-rule="evenodd" d="M499.699 205.5c0-5-3.5-11.1-7.9-13.6-2.2-1.3-4.2-1.4-5.6-.5l-4.6 2.5c-1.5.8-2.4 2.6-2.4 5.1 0 5 3.5 11.1 7.9 13.6 2.2 1.3 4.2 1.4 5.6.5l4.7-2.6c1.4-.8 2.3-2.5 2.3-5z" fill="#DFDFEF" stroke="#7765AD" stroke-width="1.4" stroke-miterlimit="10" stroke-linecap="round" stroke-linejoin="round"/><path d="M492.626 213.124c3.052-1.784 3.017-7.52-.077-12.813-3.094-5.292-8.076-8.136-11.127-6.352-3.051 1.784-3.017 7.52.077 12.813 3.094 5.292 8.076 8.136 11.127 6.352z" fill="#DFDFEF" stroke="#7765AD" stroke-width="1.4" stroke-miterlimit="10" stroke-linecap="round" stroke-linejoin="round"/><path d="M490.961 210.275c2.146-1.254 2.123-5.286-.052-9.005-2.174-3.719-5.675-5.717-7.821-4.463-2.146 1.255-2.122 5.286.052 9.005 2.174 3.719 5.676 5.717 7.821 4.463z" fill="#DFDFEF" stroke="#7765AD" stroke-width="1.4" stroke-miterlimit="10" stroke-linecap="round" stroke-linejoin="round"/><path d="M491.103 208.675c1.643-.909 1.567-4.193-.171-7.334-1.737-3.142-4.478-4.952-6.121-4.043-1.643.909-1.567 4.193.171 7.334 1.737 3.141 4.478 4.951 6.121 4.043z" fill="#DFDFEF" stroke="#7765AD" stroke-width="1.4" stroke-miterlimit="10" stroke-linecap="round" stroke-linejoin="round"/><path fill-rule="evenodd" clip-rule="evenodd" d="M489.501 203.9c.1-.9-.5-2.1-1.3-2.7-.5-.4-.9-.4-1.2-.3l-1 .7c-.2.1-.3.4-.4.7-.1.9.5 2.1 1.3 2.7.5.4.9.4 1.2.2l1.1-.7c.2-.1.3-.3.3-.6z" fill="#F7F6FB" stroke="#7765AD" stroke-width="1.4" stroke-miterlimit="10" stroke-linecap="round" stroke-linejoin="round"/><path d="M488.225 205.316c.532-.294.486-1.395-.102-2.458-.589-1.063-1.496-1.687-2.027-1.393-.532.294-.486 1.394.102 2.458.588 1.063 1.495 1.687 2.027 1.393z" fill="#F7F6FB" stroke="#7765AD" stroke-width="1.4" stroke-miterlimit="10" stroke-linecap="round" stroke-linejoin="round"/><path fill-rule="evenodd" clip-rule="evenodd" d="M527 220.6c0-5-3.5-11.1-7.9-13.6-2.2-1.3-4.2-1.4-5.6-.5l-4.6 2.5c-1.5.8-2.4 2.6-2.4 5.1 0 5 3.5 11.1 7.9 13.6 2.2 1.3 4.2 1.4 5.6.5l4.7-2.6c1.4-.8 2.3-2.6 2.3-5z" fill="#DFDFEF" stroke="#7765AD" stroke-width="1.4" stroke-miterlimit="10" stroke-linecap="round" stroke-linejoin="round"/><path d="M519.979 228.092c3.052-1.784 3.017-7.52-.077-12.813-3.094-5.292-8.076-8.136-11.127-6.352-3.051 1.784-3.017 7.52.077 12.812 3.094 5.293 8.076 8.137 11.127 6.353z" fill="#DFDFEF" stroke="#7765AD" stroke-width="1.4" stroke-miterlimit="10" stroke-linecap="round" stroke-linejoin="round"/><path d="M518.313 225.243c2.145-1.254 2.122-5.286-.052-9.005-2.174-3.719-5.676-5.717-7.821-4.462-2.146 1.254-2.123 5.286.051 9.005 2.175 3.719 5.676 5.717 7.822 4.462z" fill="#DFDFEF" stroke="#7765AD" stroke-width="1.4" stroke-miterlimit="10" stroke-linecap="round" stroke-linejoin="round"/><path d="M518.42 223.78c1.643-.909 1.567-4.192-.171-7.334-1.737-3.141-4.478-4.951-6.121-4.042-1.644.909-1.567 4.192.17 7.333 1.738 3.142 4.478 4.952 6.122 4.043z" fill="#DFDFEF" stroke="#7765AD" stroke-width="1.4" stroke-miterlimit="10" stroke-linecap="round" stroke-linejoin="round"/><path fill-rule="evenodd" clip-rule="evenodd" d="M516.801 218.9c.1-.9-.499-2.1-1.299-2.7-.5-.4-.901-.4-1.201-.3l-1 .7c-.2.1-.299.4-.399.7-.1.9.499 2.1 1.299 2.7.5.4.901.4 1.201.2l1.1-.7c.2 0 .299-.2.299-.6z" fill="#F7F6FB" stroke="#7765AD" stroke-width="1.4" stroke-miterlimit="10" stroke-linecap="round" stroke-linejoin="round"/><path d="M515.629 220.373c.532-.294.486-1.395-.102-2.458-.588-1.063-1.496-1.687-2.027-1.393-.532.294-.486 1.395.102 2.458.588 1.063 1.496 1.687 2.027 1.393z" fill="#F7F6FB" stroke="#7765AD" stroke-width="1.4" stroke-miterlimit="10" stroke-linecap="round" stroke-linejoin="round"/><path fill-rule="evenodd" clip-rule="evenodd" d="M555.8 195.8l-6.7-3.8-20.5 18 2.9 19.9 27.9-16.1-.4-12.6c0-2.3-1.3-4.3-3.2-5.4z" fill="#F7F6FB" stroke="#7765AD" stroke-width="1.4" stroke-miterlimit="10" stroke-linecap="round" stroke-linejoin="round"/><path fill-rule="evenodd" clip-rule="evenodd" d="M554.699 194.7c-15.4-13.9-34.6-37.9-55.1-28.7l-20.4 9 48.7 34.8 26.8-15.1z" fill="#F7F6FB" stroke="#7765AD" stroke-width="1.4" stroke-miterlimit="10" stroke-linecap="round" stroke-linejoin="round"/><path fill-rule="evenodd" clip-rule="evenodd" d="M502.198 169.4c-1-.6-2.3.2-2.3 1.4v24.7l30.4 17.9-5-26.1c-.4-3.1-2.2-5.9-4.9-7.4l-18.2-10.5z" fill="#F7F6FB" stroke="#7765AD" stroke-width="1.4" stroke-miterlimit="10" stroke-linecap="round" stroke-linejoin="round"/><path fill-rule="evenodd" clip-rule="evenodd" d="M529.299 211.1c1.5 1.7 2.3 3.8 2.3 6v12.7l-7.099-4.1c.1-.5.099-1 .099-1.5 0-6-4.2-13.3-9.4-16.3s-9.4-.6-9.4 5.4c0 .5 0 1.1.1 1.6l-8.6-4.9c0-.4.1-.7.1-1.1 0-5.9-4.2-13.1-9.3-16.1-5.1-3-9.3-.6-9.3 5.3 0 .4 0 .8.1 1.2l-1.8-1-2.4-1.3v-11.2c0-16.2 13.4-12.5 25.1-8 .1 0 .2.1.4.1" fill="#F7F6FB"/><path d="M529.299 211.1c1.5 1.7 2.3 3.8 2.3 6v12.7l-7.099-4.1c.1-.5.099-1 .099-1.5 0-6-4.2-13.3-9.4-16.3s-9.4-.6-9.4 5.4c0 .5 0 1.1.1 1.6l-8.6-4.9c0-.4.1-.7.1-1.1 0-5.9-4.2-13.1-9.3-16.1-5.1-3-9.3-.6-9.3 5.3 0 .4 0 .8.1 1.2l-1.8-1-2.4-1.3v-11.2c0-16.2 13.4-12.5 25.1-8 .1 0 .2.1.4.1" stroke="#7765AD" stroke-width="1.4" stroke-miterlimit="10" stroke-linecap="round" stroke-linejoin="round"/><path fill-rule="evenodd" clip-rule="evenodd" d="M555.7 195.6l-3.1-25.3c-.3-2.6-1.9-4.8-4.3-5.9l-17.7-8.4c-.8-.4-1.7-.4-2.5 0l-27 13.3 18.5 10.5c2.9 1.6 4.8 4.5 5.2 7.7l4 23.6 26.9-15.5z" fill="#F7F6FB" stroke="#7765AD" stroke-width="1.4" stroke-miterlimit="10" stroke-linecap="round" stroke-linejoin="round"/><path fill-rule="evenodd" clip-rule="evenodd" d="M553.399 184.7l-1.5-12.7c-.1-1.1-1.4-1.7-2.4-1.2l-21.901 12.7c-.5.3-.899.9-.799 1.6l1.5 12.7c.1 1.1 1.4 1.7 2.4 1.2l21.899-12.7c.6-.3.901-.9.801-1.6z" fill="#DFDFEF" stroke="#7765AD" stroke-width="1.4" stroke-miterlimit="10" stroke-linecap="round" stroke-linejoin="round"/><path fill-rule="evenodd" clip-rule="evenodd" d="M513.7 191.4l8.7 5.1c.5.3 1.2-.1 1.1-.7l-.7-6.6c-.4-3.3-2.3-6.3-5.2-8l-11.9-6.9c-.9-.5-2.1.1-2.1 1.2v10.2l6.5 3.8" fill="#DFDFEF"/><path d="M513.7 191.4l8.7 5.1c.5.3 1.2-.1 1.1-.7l-.7-6.6c-.4-3.3-2.3-6.3-5.2-8l-11.9-6.9c-.9-.5-2.1.1-2.1 1.2v10.2l6.5 3.8" stroke="#7765AD" stroke-width="1.4" stroke-miterlimit="10" stroke-linecap="round" stroke-linejoin="round"/><path fill-rule="evenodd" clip-rule="evenodd" d="M489.4 189.7c-.5-.3-.9-1.1-.9-1.8v-9.2c0-.7.4-1 .9-.7.5.3.9 1.1.9 1.8v9.2c0 .6-.4.9-.9.7zM485.9 188.3c-.5-.3-.9-1.1-.9-1.8v-9.2c0-.7.4-1 .9-.7.5.3.9 1.1.9 1.8v9.2c.1.7-.4 1-.9.7zM493.099 191c-.5-.3-.9-1.1-.9-1.8V180c0-.7.4-1 .9-.7.5.3.901 1.1.901 1.8v9.2c0 .7-.401 1-.901.7z" fill="#DFDFEF"/><path d="M503.6 191.2l4.6 2.4" stroke="#DFDFEF" stroke-width="1.4" stroke-miterlimit="10" stroke-linecap="round" stroke-linejoin="round"/><path d="M595.3 231.8l-26.9-15.4c-1.2-.7-2.2-2.4-2.2-3.8v-52.9c0-1.8-1.3-3.9-2.8-4.8-.7-.4-1.3-.5-1.7-.3-.1 0-.2.1-.4.2l-4.3 2.3c-.6.2-1 .9-1 1.9v54.3c0 2.7 1.9 5.9 4.2 7.3l33.5 19.2 4.6-2.5-3-5.5z" fill="#F7F6FB" stroke="#7765AD" stroke-width="1.4" stroke-miterlimit="10" stroke-linecap="round" stroke-linejoin="round"/><path d="M590.7 234.3l-26.9-15.4c-1.2-.7-2.2-2.4-2.2-3.8v-52.9c0-1.8-1.3-3.9-2.8-4.8-1.6-.9-2.8-.2-2.8 1.6v54.3c0 2.7 1.9 5.9 4.2 7.3l33.5 19.2-3-5.5z" fill="#DFDFEF" stroke="#7765AD" stroke-width="1.4" stroke-miterlimit="10" stroke-linecap="round" stroke-linejoin="round"/><path d="M590.699 234.3l4.6-2.5" stroke="#7765AD" stroke-width="1.4" stroke-miterlimit="10" stroke-linecap="round" stroke-linejoin="round"/><path d="M556.398 207.4l-9.5-5.5c-.4-.3-.3-.9.4-1.4l.4-.3c.6-.5 1.5-.7 2-.5l9.5 5.5-2.8 2.2zM541.598 198.3v-5.1l.1-4.3 14.4-6.8 4.1.8v5.6l-18.6 9.8z" fill="#DFDFEF" stroke="#7765AD" stroke-width="1.4" stroke-miterlimit="10" stroke-linecap="round" stroke-linejoin="round"/><path d="M542.398 191.4l17.5-8.4" stroke="#7765AD" stroke-width="1.4" stroke-miterlimit="10" stroke-linecap="round" stroke-linejoin="round"/><path d="M541.598 218.6v-5l.1-4.4 14.4-6.7 4.1.8v5.6l-18.6 9.7z" fill="#DFDFEF" stroke="#7765AD" stroke-width="1.4" stroke-miterlimit="10" stroke-linecap="round" stroke-linejoin="round"/><path d="M542.398 211.8l17.5-8.5" stroke="#7765AD" stroke-width="1.4" stroke-miterlimit="10" stroke-linecap="round" stroke-linejoin="round"/><path d="M572.599 246.4l-26.9-15.4c-1.2-.7-2.2-2.4-2.2-3.8v-52.9c0-1.8-1.3-3.9-2.8-4.8-.7-.4-1.3-.5-1.7-.3-.1 0-.2.1-.4.2l-4.3 2.3c-.6.2-1 .9-1 1.9v54.3c0 2.7 1.9 5.9 4.2 7.3l33.5 19.2 4.6-2.5-3-5.5z" fill="#F7F6FB" stroke="#7765AD" stroke-width="1.4" stroke-miterlimit="10" stroke-linecap="round" stroke-linejoin="round"/><path d="M538.899 200.7v-23.8c0-1.8-1.3-3.9-2.8-4.8-1.6-.9-2.8-.2-2.8 1.6V228c0 2.7 1.9 5.9 4.2 7.3l33.5 19.2-2.9-5.5-26.9-15.4c-1.2-.7-2.2-2.4-2.2-3.8v-15.5" fill="#F7F6FB"/><path d="M538.899 200.7v-23.8c0-1.8-1.3-3.9-2.8-4.8-1.6-.9-2.8-.2-2.8 1.6V228c0 2.7 1.9 5.9 4.2 7.3l33.5 19.2-2.9-5.5-26.9-15.4c-1.2-.7-2.2-2.4-2.2-3.8v-15.5M538.898 204.8v-.9M568 248.9l4.6-2.5" stroke="#7765AD" stroke-width="1.4" stroke-miterlimit="10" stroke-linecap="round" stroke-linejoin="round"/><path d="M538.899 221.5c-.1-1.1.5-2.2 1.9-3l20.7-12c2.8-1.6 7.7-1.4 11 .5l19 11c1.8 1 2.7 2.3 2.7 3.6v9.1c0 1.1-.6 2.1-1.9 2.9l-20.7 12c-2.8 1.6-7.7 1.4-11-.5l-19-11c-1.9-1.1-2.8-2.5-2.7-3.8v-8.8z" fill="#DFDFEF" stroke="#7765AD" stroke-width="1.4" stroke-miterlimit="10" stroke-linecap="round" stroke-linejoin="round"/><path d="M554.799 232.5l5.7 3.3c3.2 1.9 8.1 2.1 11 .5l20.7-12c2.8-1.6 2.5-4.5-.8-6.3l-19-11c-3.2-1.9-8.1-2.1-11-.5l-20.7 12c-2.8 1.6-2.5 4.5.8 6.3l9.4 5.5" fill="#F7F6FB"/><path d="M554.799 232.5l5.7 3.3c3.2 1.9 8.1 2.1 11 .5l20.7-12c2.8-1.6 2.5-4.5-.8-6.3l-19-11c-3.2-1.9-8.1-2.1-11-.5l-20.7 12c-2.8 1.6-2.5 4.5.8 6.3l9.4 5.5" stroke="#7765AD" stroke-width="1.4" stroke-miterlimit="10" stroke-linecap="round" stroke-linejoin="round"/><path fill-rule="evenodd" clip-rule="evenodd" d="M503.1 208.4l-10.7-6.3c-.8-.5-.7-1.2.2-1.8l4.1-2.4 13.5 7.9-4.1 2.4c-.8.6-2.2.6-3 .2z" fill="#F7F6FB" stroke="#7765AD" stroke-width="1.4" stroke-miterlimit="10" stroke-linecap="round" stroke-linejoin="round"/><path d="M496.1 200.9l8.5 5.1" stroke="#7765AD" stroke-width="1.4" stroke-miterlimit="10" stroke-linecap="round" stroke-linejoin="round"/><path d="M573.501 225.4c.3 0 .599 0 .799-.2.2-.1.3-.3.3-.5-.1-.3-1.4-7-5.9-9.6-3.3-1.9-8.5-1.9-11.8 0-2.5 1.4-3.1 3.6-1.7 5.3.3.4 1.1.4 1.6.2.3-.2.401-.4.201-.6-1-1.4-.601-3 1.299-4.1 2.5-1.4 6.5-1.4 9 0 3.2 1.8 4.701 6.4 5.201 8.2-2.8-.2-9.401-1-13.101-2.5-.4-.2-.9-.1-1.2.1-.4.2-.4.7.1.9 5.1 2.2 14.801 2.8 15.201 2.8z" fill="#7765AD"/><path d="M566.1 216.7c-1.8-1.1-4.8-1.1-6.6 0-1.8 1-1.8 2.7 0 3.8 1.8 1.1 4.8 1.1 6.6 0 1.8-1 1.8-2.7 0-3.8zm-5.2 3c-1.1-.6-1.1-1.6 0-2.2 1.1-.6 2.8-.6 3.8 0 1.1.6 1.1 1.6 0 2.2-1 .7-2.7.7-3.8 0zM575.9 221.7c-.4.1-.6.5-.4.7.2.3.8.3 1.2.2 1.7-.5 2.7-.5 2.9-.4.2.1.2.6-.4 1.3-.7.8-1.9 1.8-3.4 2.7-1.5.9-3.2 1.6-4.6 2-1.3.3-2.1.3-2.3.2-.2-.1-.3-.7.6-1.7.2-.3.1-.6-.4-.7-.4-.1-1 0-1.2.2-1.2 1.3-1.3 2.3-.3 2.9 1.9 1.1 6.2-.3 9.4-2.2 3.3-1.9 5.6-4.4 3.7-5.5-.7-.4-2.5-.4-4.8.3z" fill="#7765AD"/><path d="M598.3 237.3l-2.9-5.5-1.2-.7v-9.6-.4c0-.1 0-.2-.1-.3 0-.1 0-.1-.1-.2 0-.1-.1-.2-.1-.3 0-.1-.1-.1-.1-.2-.1-.1-.1-.2-.2-.3 0-.1-.1-.1-.1-.2-.1-.1-.1-.2-.2-.3 0-.1-.1-.1-.1-.2l-.3-.3-.2-.2c-.1-.1-.2-.2-.4-.3-.1 0-.1-.1-.2-.1-.2-.1-.4-.3-.6-.4l-19-11c-.4-.2-.8-.4-1.3-.6-.4-.2-.9-.3-1.4-.5-1-.3-2-.4-3-.4h-.6v-45.7c0-1.8-1.3-3.9-2.8-4.8-.7-.4-1.3-.5-1.7-.3-.1 0-.2.1-.4.2L557 157h-.1c-.1 0-.2.1-.2.1-.1 0-.1.1-.1.1-.1.1-.1.2-.2.2 0 .1-.1.1-.1.2-.1.1-.1.2-.1.4 0 .1 0 .1-.1.2 0 .2-.1.4-.1.7v23.2l-1.8.9-1.5-12.7c-.3-2.6-1.9-4.8-4.3-5.9l-17.7-8.4c-.8-.4-1.7-.4-2.5 0l-16.6 8.2c-3.9-.4-7.9.1-11.9 1.9l-19.2 8.5c-3.5 1.2-5.9 4.5-5.9 11.3v11.2l2.4 1.3 1.8 1c0-.4-.1-.8-.1-1.2 0-4.9 2.8-7.3 6.7-6.4l-3.9 2.1c-.1.1-.3.2-.4.3l-.1.1c-.1.1-.2.2-.4.3l-.1.1c-.1.1-.2.3-.3.4l-.1.1c-.1.1-.2.3-.3.4 0 .1-.1.1-.1.2-.1.2-.1.3-.2.5 0 .1-.1.1-.1.2-.1.2-.1.4-.1.5 0 .1 0 .1-.1.2 0 .2-.1.4-.1.6v1.1c0 2.8 1.1 6 2.9 8.7 1.4 2.1 3.1 3.9 5 5 .3.2.5.3.8.4.1 0 .1.1.2.1.2.1.4.2.6.2.1 0 .1 0 .2.1.2.1.4.1.5.1h.2c.2 0 .4.1.5.1H490.9c.2 0 .3 0 .5-.1h.2c.2 0 .3-.1.5-.1.1 0 .1 0 .1-.1.1-.1.3-.1.4-.2l4.7-2.6c.1-.1.2-.2.3-.2l8.1 4.7c-.1-.6-.1-1.1-.1-1.6 0-5 2.9-7.5 6.9-6.4l-3.8 2.1c-.1.1-.3.2-.4.3l-.1.1c-.1.1-.2.2-.4.3l-.1.1c-.1.1-.2.3-.3.4l-.1.1c-.1.1-.2.3-.2.4 0 .1-.1.1-.1.2-.1.2-.1.3-.2.5 0 .1-.1.1-.1.2-.1.2-.1.3-.1.5 0 .1 0 .2-.1.2 0 .2-.1.4-.1.6v1.1c0 4.4 2.7 9.6 6.3 12.5.5.4 1 .8 1.6 1.1.3.2.5.3.8.4.1 0 .1.1.2.1.2.1.4.2.6.2.1 0 .2 0 .2.1.2.1.4.1.5.1h.2c.2 0 .4.1.5.1H518.2c.2 0 .3 0 .5-.1h.1c.2 0 .3-.1.5-.1 0 0 .1 0 .1-.1.1-.1.3-.1.4-.2l4.5-2.5 7.1 4.1 1.8-1c.1.7.3 1.5.6 2.2.5 1 1.1 2 1.9 2.8.5.5 1.1 1 1.6 1.3l12.2 7 21.3 12.2 4.6-2.5-2.9-5.5-1.4-.8c.1 0 .2-.1.3-.1l16-9.2 6.2 3.5 4.7-2.4zM556 195.9c-.1 0-.1-.1-.2-.1l-.3-.2.1-.1-.5-4.4.8-.4v5.2h.1z" stroke="#7765AD" stroke-width="2.2" stroke-miterlimit="10" stroke-linecap="round" stroke-linejoin="round"/><path d="M588.499 253.4c-.1-1 .5-2 1.7-2.7l19-11c2.6-1.5 7.1-1.3 10 .4l17.4 10c1.6.9 2.4 2.1 2.5 3.3v8.3c0 1-.5 1.9-1.7 2.6l-19 11c-2.6 1.5-7.1 1.3-10-.4l-17.4-10c-1.7-1-2.6-2.3-2.4-3.5v-8h-.1z" fill="#DFDFEF" stroke="#7765AD" stroke-width="1.4" stroke-miterlimit="10" stroke-linecap="round" stroke-linejoin="round"/><path d="M618.3 267l19-11c2.6-1.5 2.2-4.1-.7-5.8l-17.4-10c-3-1.7-7.5-1.9-10-.4l-19 11c-2.6 1.5-2.2 4.1.7 5.8l17.4 10c3 1.6 7.5 1.8 10 .4z" fill="#F7F6FB" stroke="#7765AD" stroke-width="1.4" stroke-miterlimit="10" stroke-linecap="round" stroke-linejoin="round"/><path d="M588.499 245.1c-.1-1 .5-2 1.7-2.7l19-11c2.6-1.5 7.1-1.3 10 .4l17.4 10c1.6.9 2.4 2.1 2.5 3.3v8.3c0 1-.5 1.9-1.7 2.6l-19 11c-2.6 1.5-7.1 1.3-10-.4l-17.4-10c-1.7-1-2.6-2.3-2.4-3.5v-8h-.1z" fill="#DFDFEF" stroke="#7765AD" stroke-width="1.4" stroke-miterlimit="10" stroke-linecap="round" stroke-linejoin="round"/><path d="M609.4 258.7c2.9 1.2 6.7 1.2 8.9-.1l19-11c2.6-1.5 2.2-4.1-.7-5.8l-17.4-10c-3-1.7-7.5-1.9-10-.4l-19 11c-2.6 1.5-2.2 4.1.7 5.8l12 6.9" fill="#F7F6FB"/><path d="M609.4 258.7c2.9 1.2 6.7 1.2 8.9-.1l19-11c2.6-1.5 2.2-4.1-.7-5.8l-17.4-10c-3-1.7-7.5-1.9-10-.4l-19 11c-2.6 1.5-2.2 4.1.7 5.8l12 6.9" stroke="#7765AD" stroke-width="1.4" stroke-miterlimit="10" stroke-linecap="round" stroke-linejoin="round"/><path d="M603.6 255.6l-12.6-7.3c-1.7-1-2.6-2.3-2.4-3.5v-8c-.1-1 .5-2 1.7-2.7l19-11c2.6-1.5 7.1-1.3 10 .4l17.4 10c1.6.9 2.4 2.1 2.5 3.3v8.3c0 1-.5 1.9-1.7 2.6l-19 11c-2.6 1.5-7.1 1.3-10-.4l-1.1-.6" fill="#DFDFEF"/><path d="M603.6 255.6l-12.6-7.3c-1.7-1-2.6-2.3-2.4-3.5v-8c-.1-1 .5-2 1.7-2.7l19-11c2.6-1.5 7.1-1.3 10 .4l17.4 10c1.6.9 2.4 2.1 2.5 3.3v8.3c0 1-.5 1.9-1.7 2.6l-19 11c-2.6 1.5-7.1 1.3-10-.4l-1.1-.6" stroke="#7765AD" stroke-width="1.4" stroke-miterlimit="10" stroke-linecap="round" stroke-linejoin="round"/><path d="M618.3 250.3l19-11c2.6-1.5 2.2-4.1-.7-5.8l-17.4-10c-3-1.7-7.5-1.9-10-.4l-19 11c-2.6 1.5-2.2 4.1.7 5.8l17.4 10c3 1.7 7.5 1.9 10 .4z" fill="#F7F6FB" stroke="#7765AD" stroke-width="1.4" stroke-miterlimit="10" stroke-linecap="round" stroke-linejoin="round"/><path d="M588.499 228.4c-.1-1 .5-2 1.7-2.7l19-11c2.6-1.5 7.1-1.3 10 .4l17.4 10c1.6.9 2.4 2.1 2.5 3.3v8.3c0 1-.5 1.9-1.7 2.6l-19 11c-2.6 1.5-7.1 1.3-10-.4l-17.4-10c-1.7-1-2.6-2.3-2.4-3.5v-8h-.1z" fill="#DFDFEF" stroke="#7765AD" stroke-width="1.4" stroke-miterlimit="10" stroke-linecap="round" stroke-linejoin="round"/><path d="M603.1 238.5l5.2 3c3 1.7 7.5 1.9 10 .4l19-11c2.6-1.5 2.2-4.1-.7-5.8l-17.4-10c-3-1.7-7.5-1.9-10-.4l-19 11c-2.6 1.5-2.2 4.1.7 5.8l2.8 1.6" fill="#F7F6FB"/><path d="M603.1 238.5l5.2 3c3 1.7 7.5 1.9 10 .4l19-11c2.6-1.5 2.2-4.1-.7-5.8l-17.4-10c-3-1.7-7.5-1.9-10-.4l-19 11c-2.6 1.5-2.2 4.1.7 5.8l2.8 1.6M598.199 235.7l.9.5" stroke="#7765AD" stroke-width="1.4" stroke-miterlimit="10" stroke-linecap="round" stroke-linejoin="round"/><path d="M221.285 207.535v-1.6c0-.2 0-.4.2-.8l5.1-10.2c0-.1.1-.2.2-.2l1.1-.6c.2-.1.3 0 .3.2v7.3l1.2-.7c.2-.1.3 0 .3.2v1.6c0 .2-.1.4-.3.5l-1.2.7v2.2c0 .2-.1.4-.3.5l-1.6.9c-.1.1-.3 0-.3-.2v-2.2l-4.4 2.6c-.2 0-.3 0-.3-.2zm2.3-3.2l2.4-1.4v-3.4l-2.4 4.8zM231.086 198.635c0-4 1.4-7.1 3.9-8.5 2.5-1.4 3.9.1 3.9 4.1 0 3.9-1.4 7.1-3.9 8.5-2.5 1.4-3.9-.2-3.9-4.1zm5.4-3.2c0-2.4-.6-3.4-1.6-2.8-.9.5-1.6 2.3-1.6 4.6 0 2.4.6 3.4 1.6 2.9s1.6-2.3 1.6-4.7zM240.484 193.235c0-4 1.401-7.1 3.901-8.5 2.5-1.4 3.9.1 3.9 4.1 0 3.9-1.4 7.1-3.9 8.5-2.6 1.4-3.901-.2-3.901-4.1zm5.401-3.2c0-2.4-.6-3.4-1.6-2.8-.9.5-1.6 2.3-1.6 4.6 0 2.4.6 3.4 1.6 2.9.9-.5 1.6-2.3 1.6-4.7z" fill="#7CCED0"/><path opacity=".2" d="M182.506 209.266c5.379-9.202 5.45-19.17.158-22.264-5.293-3.094-13.944 1.857-19.324 11.059-5.379 9.202-5.45 19.17-.158 22.264 5.293 3.094 13.944-1.857 19.324-11.059z" fill="#7CCED0" fill-opacity=".2" stroke="#7CCED0" stroke-width="1.4" stroke-miterlimit="10"/><path opacity=".4" d="M194.228 215.895c5.38-9.202 5.451-19.17.158-22.264-5.292-3.094-13.943 1.858-19.323 11.06-5.38 9.202-5.45 19.17-.158 22.264 5.292 3.094 13.944-1.858 19.323-11.06z" fill="#7CCED0" fill-opacity=".2" stroke="#7CCED0" stroke-width="1.4" stroke-miterlimit="10"/><path d="M187.484 233.735l.1.1 2.301 1.3.5.3c2.5 1.3 5.8 1 9.5-1.1 7.5-4.4 13.699-14.9 13.699-23.6 0-4.3-1.5-7.3-4-8.7-.1 0-.099-.1-.199-.1l-2.401-1.4c-2.5-1.5-5.899-1.3-9.799.9-7.5 4.4-13.701 14.9-13.701 23.6.1 4.3 1.6 7.3 4 8.7z" fill="#7CCED0" fill-opacity=".2" stroke="#7CCED0" stroke-width="1.4" stroke-miterlimit="10"/><path d="M189.384 214.635c0 .1-.1.2-.1.2-1.9 3.8-3.1 7.9-3.1 11.7 0 8.7 6.1 12.1 13.7 7.8 7.5-4.4 13.699-14.9 13.699-23.6 0-8.7-6.099-12.1-13.699-7.8-2.6 1.5-4.9 3.7-7 6.2" fill="#7CCED0" fill-opacity=".2"/><path d="M189.384 214.635c0 .1-.1.2-.1.2-1.9 3.8-3.1 7.9-3.1 11.7 0 8.7 6.1 12.1 13.7 7.8 7.5-4.4 13.699-14.9 13.699-23.6 0-8.7-6.099-12.1-13.699-7.8-2.6 1.5-4.9 3.7-7 6.2" stroke="#7CCED0" stroke-width="1.4" stroke-miterlimit="10" stroke-linecap="round" stroke-linejoin="round"/><path d="M190.684 212.435s0 .1-.1.1l.1-.1z" fill="#7CCED0" fill-opacity=".2"/><path d="M190.684 212.435s0 .1-.1.1" stroke="#7CCED0" stroke-width="1.4" stroke-miterlimit="10" stroke-linecap="round" stroke-linejoin="round"/><path d="M200.984 211.235c.6-.3 1.201-.7 1.801-1l-3 16.8c-.6.3-1.201.7-1.801 1l3-16.8zM207.285 215.135c-1.1-.4-2.201-.7-3.301-1-.1 0-.199-.1-.199-.3v-2.2c2.4.7 4.299 1.4 5.399 1.7.4.1.4.8 0 1.5-.3.5-5.099 7.5-5.399 8v-1.4c-.1-.8.199-1.4.799-2.2.8-1.2 2.401-3.7 2.701-4.1zM196.884 226.735c-1.5-.5-2.9-.9-5.5-1.7-.1 0-.2-.2-.2-.4-.1-.5.1-.8.4-1.3 2.7-3.9 4.8-7 5.3-7.8v2.1c0 .3-.1.6-.3.9-.5.7-2.8 4.1-3.1 4.6l1.8.6c1.6.5 1.7.5 1.7.7v2.1c-.1 0-.1.1-.1.2z" fill="#7CCED0"/></svg>