<svg width="64" height="64" viewBox="0 0 74 75" fill="none" xmlns="http://www.w3.org/2000/svg"><g clip-path="url(#clip0)"><path d="M59.72 70.474H14.93c-5.388 0-9.737-4.332-9.737-9.698V16.164c0-5.367 4.349-9.698 9.737-9.698h44.79c5.387 0 9.736 4.331 9.736 9.698v44.612c0 5.366-4.35 9.698-9.737 9.698z" fill="#EF5AA0"/><path d="M58.616 58.9H16.033c-2.531 0-4.544-2.004-4.544-4.525V20.108c0-2.522 2.013-4.526 4.544-4.526h42.648c2.531 0 4.544 2.004 4.544 4.526v34.267c-.065 2.457-2.078 4.526-4.61 4.526z" fill="#fff"/><path d="M18.954 23.793a2.073 2.073 0 002.078-2.069c0-1.143-.93-2.069-2.078-2.069a2.073 2.073 0 00-2.077 2.069c0 1.143.93 2.069 2.077 2.069zM25.316 23.793a2.073 2.073 0 002.077-2.069c0-1.143-.93-2.069-2.077-2.069a2.073 2.073 0 00-2.078 2.069c0 1.143.93 2.069 2.078 2.069zM31.677 23.793a2.073 2.073 0 002.077-2.069c0-1.143-.93-2.069-2.077-2.069a2.073 2.073 0 00-2.077 2.069c0 1.143.93 2.069 2.077 2.069zM54.786 53.728H19.863a2.972 2.972 0 01-2.986-2.974V30.711a2.972 2.972 0 012.986-2.974h34.988a2.972 2.972 0 012.986 2.974v20.043c-.065 1.681-1.363 2.974-3.051 2.974z" fill="#EF5AA0"/><path d="M61.797 59.547c.194 0 .389-.258.26-.452-.196-.259-.325-.582-.52-.84.13-.065.195-.13.195-.195.13 0 .194-.129.26-.258.064 0 .13 0 .194-.065a.312.312 0 000-.453l-.065-.064v-.065c.13.13.26.259.39.323.194.194.454.065.519-.129h.065c.26.13.584 0 .52-.323-.13-.324-.26-.647-.326-.97l6.102-.388-21.94-20.172v29.806l6.686-6.337 3.895 8.923 6.101-2.651-2.466-5.56c.065-.065.13-.065.13-.13zm-2.792 5.82l-4.219-9.634-5.453 5.172V39.892l15.58 14.224-7.466.453 4.22 9.633-2.662 1.164z" fill="#EF5AA0"/><path d="M57.383 54.569l4.284 9.634-2.662 1.163-4.219-9.633-5.453 5.172V39.828l15.58 14.224-7.53.517z" fill="#fff"/></g><defs><clipPath id="clip0"><path fill="#fff" d="M0 0h74v75H0z"/></clipPath></defs></svg>