<svg width="64" height="64" viewBox="0 0 64 64" fill="none" xmlns="http://www.w3.org/2000/svg"><g clip-path="url(#clip0)"><rect width="64" height="64" rx="11" fill="#5F6CFF"/><path d="M29.592 55.984c-2.457 0-4.525-2.004-4.525-4.525v-2.522c-.065-.064-.194-.064-.259-.129l-1.81 1.81a4.503 4.503 0 01-3.168 1.293c-1.228 0-2.327-.452-3.167-1.293l-3.297-3.297a4.503 4.503 0 01-1.293-3.167c0-1.229.452-2.328 1.293-3.168l1.81-1.81c-.065-.065-.065-.194-.13-.259h-2.52C10.068 38.917 8 36.913 8 34.392v-4.655c0-2.456 2.004-4.525 4.525-4.525h2.521c.065-.13.065-.194.13-.258l-1.81-1.81a4.503 4.503 0 01-1.293-3.168c0-1.229.452-2.328 1.293-3.168l3.297-3.297a4.503 4.503 0 013.167-1.293c1.229 0 2.328.453 3.168 1.293l1.81 1.81c.065-.064.194-.064.259-.129v-2.521c0-2.457 2.004-4.525 4.525-4.525h4.654c2.457 0 4.526 2.003 4.526 4.525v2.521c.129.065.194.065.323.13l1.81-1.81a4.503 4.503 0 013.168-1.294c1.228 0 2.327.453 3.167 1.293l3.297 3.297a4.503 4.503 0 011.293 3.168c0 1.228-.452 2.327-1.293 3.168l-1.81 1.81c.065.064.065.194.13.258h2.52c2.457 0 4.526 2.004 4.526 4.525v4.655c0 2.456-2.004 4.525-4.525 4.525h-2.521c-.065.065-.065.194-.13.259l1.81 1.81a4.503 4.503 0 011.293 3.168c0 1.228-.452 2.327-1.293 3.167l-3.297 3.297a4.503 4.503 0 01-3.167 1.293c-1.229 0-2.328-.452-3.168-1.293l-1.81-1.81c-.065.065-.194.065-.323.13v2.52c0 2.457-2.004 4.526-4.526 4.526h-4.654zM24.29 44.347c.258 0 .517.065.711.194.97.518 1.94.97 2.974 1.229.646.194 1.034.71 1.034 1.357v4.332a.58.58 0 00.582.581h4.654a.58.58 0 00.582-.581v-4.332c0-.646.453-1.228 1.035-1.357 1.034-.324 2.068-.711 2.973-1.229.194-.129.453-.194.712-.194.387 0 .71.13 1.034.388l3.038 3.039c.13.13.259.194.388.194.13 0 .259-.065.388-.13l3.297-3.297c.13-.129.194-.258.194-.387 0-.13-.065-.259-.194-.388l-3.038-3.039c-.453-.452-.518-1.163-.259-1.745.517-.97.97-1.94 1.228-2.974.194-.646.711-1.034 1.358-1.034h4.331a.58.58 0 00.582-.582v-4.655a.58.58 0 00-.582-.581h-4.331c-.647 0-1.228-.453-1.358-1.035-.323-1.034-.71-2.068-1.228-2.973-.323-.582-.194-1.229.258-1.681l3.039-3.039c.13-.129.194-.258.194-.387 0-.13-.065-.26-.194-.388l-3.297-3.297c-.13-.13-.259-.194-.388-.194-.13 0-.259.064-.388.194l-3.038 3.038c-.259.259-.647.388-1.035.388-.258 0-.517-.065-.71-.194-.97-.517-1.94-.97-2.974-1.228-.647-.194-1.035-.712-1.035-1.358v-4.331a.58.58 0 00-.582-.582h-4.654a.58.58 0 00-.582.582v4.331c0 .646-.452 1.228-1.034 1.358-1.035.323-2.069.71-2.974 1.228-.194.13-.453.194-.711.194-.388 0-.711-.13-1.034-.388l-3.039-3.038c-.13-.13-.258-.194-.388-.194-.129 0-.258.064-.388.194l-3.297 3.297c-.129.129-.194.258-.194.388 0 .129.065.258.194.387l3.039 3.039c.452.452.517 1.163.258 1.745-.517.97-.97 1.94-1.228 2.974-.194.646-.711 1.034-1.357 1.034h-4.332a.58.58 0 00-.582.582v4.655a.58.58 0 00.582.581h4.332c.646 0 1.228.453 1.357 1.035.323 1.034.711 2.069 1.228 2.974.324.581.194 1.228-.258 1.68l-3.039 3.039c-.129.129-.194.258-.194.388 0 .129.065.258.194.387l3.297 3.297c.13.13.259.194.388.194.13 0 .259-.064.388-.194l3.039-3.038c.258-.323.646-.453 1.034-.453zm7.628-4.59c-4.267 0-7.757-3.49-7.757-7.757 0-4.267 3.49-7.758 7.757-7.758 4.267 0 7.758 3.491 7.758 7.758 0 4.267-3.491 7.758-7.758 7.758zm0-11.571c-2.069 0-3.814 1.68-3.814 3.814 0 2.069 1.68 3.814 3.814 3.814 2.069 0 3.814-1.68 3.814-3.814 0-2.069-1.745-3.814-3.814-3.814z" fill="#fff"/><path d="M34.246 11.313c.647 0 1.229.517 1.229 1.228v4.332c0 .323.258.646.582.775 1.099.324 2.133.776 3.103 1.293.129.065.258.13.388.13a.734.734 0 00.517-.194l3.038-3.039c.259-.258.517-.323.84-.323.324 0 .647.13.84.323l3.298 3.297a1.21 1.21 0 010 1.681l-3.039 3.039c-.258.258-.323.646-.129.905.517.97.97 2.068 1.293 3.167.065.323.388.582.776.582h4.331c.647 0 1.228.517 1.228 1.228v4.655c0 .646-.517 1.228-1.228 1.228h-4.331c-.323 0-.647.259-.776.582a16.517 16.517 0 01-1.293 3.103.784.784 0 00.13.97l3.038 3.038a1.21 1.21 0 010 1.68l-3.297 3.298c-.259.259-.517.323-.84.323-.324 0-.647-.13-.84-.323l-3.04-3.038a.82.82 0 00-.581-.26c-.13 0-.259 0-.388.13-.97.517-2.069.97-3.168 1.293-.323.065-.581.388-.581.776v4.331c0 .647-.518 1.228-1.229 1.228h-4.654a1.227 1.227 0 01-1.229-1.228v-4.331c0-.323-.258-.647-.582-.776a16.506 16.506 0 01-3.103-1.293c-.129-.064-.258-.13-.387-.13a.734.734 0 00-.517.195l-3.039 3.038c-.259.259-.517.324-.84.324-.324 0-.647-.13-.84-.324l-3.298-3.297a1.21 1.21 0 010-1.68l3.039-3.039c.258-.258.323-.646.129-.905a17.12 17.12 0 01-1.293-3.168c-.13-.323-.388-.581-.776-.581h-4.331a1.227 1.227 0 01-1.228-1.229v-4.654c0-.647.517-1.229 1.228-1.229h4.331c.323 0 .647-.258.776-.581a16.504 16.504 0 011.293-3.103.784.784 0 00-.13-.97l-3.038-3.038a1.21 1.21 0 010-1.681l3.297-3.297c.259-.259.517-.323.84-.323.324 0 .647.129.841.323l3.038 3.038a.82.82 0 00.582.259c.13 0 .259-.065.388-.13.97-.517 2.069-.97 3.168-1.293.323-.064.582-.387.582-.775V12.54c0-.646.517-1.228 1.228-1.228h4.654zM31.92 39.111A7.09 7.09 0 0039.03 32a7.09 7.09 0 00-7.11-7.111A7.09 7.09 0 0024.807 32a7.09 7.09 0 007.111 7.111zm2.327-30.448h-4.654a3.89 3.89 0 00-3.879 3.878v2.974c-.388.13-.711.259-1.099.453l-2.069-2.134c-.71-.71-1.68-1.099-2.715-1.099-1.034 0-2.004.388-2.715 1.1l-3.297 3.296c-.71.711-1.099 1.681-1.099 2.715 0 1.035.388 2.005 1.1 2.716l2.132 2.133c-.129.323-.323.711-.452 1.099h-2.974a3.89 3.89 0 00-3.879 3.879v4.654a3.89 3.89 0 003.88 3.879h2.908c.13.388.259.711.453 1.099l-2.133 2.069c-.712.71-1.1 1.68-1.1 2.715 0 1.034.388 2.004 1.1 2.715l3.296 3.297c.712.711 1.681 1.099 2.716 1.099 1.034 0 2.004-.388 2.715-1.099l2.133-2.133c.323.129.711.323 1.1.452v2.974a3.89 3.89 0 003.878 3.879h4.654a3.89 3.89 0 003.88-3.88v-2.908c.387-.13.71-.259 1.098-.453l2.134 2.134c.71.71 1.68 1.099 2.715 1.099 1.034 0 2.004-.388 2.715-1.164l3.297-3.297c.711-.711 1.099-1.68 1.099-2.715s-.388-2.004-1.1-2.715l-2.133-2.134c.13-.323.324-.71.453-1.099h2.974a3.89 3.89 0 003.879-3.878v-4.655a3.89 3.89 0 00-3.88-3.879h-2.973a7.88 7.88 0 00-.453-1.099l2.134-2.133c.711-.711 1.099-1.68 1.099-2.715s-.388-2.004-1.164-2.715l-3.297-3.297c-.71-.711-1.68-1.1-2.715-1.1-1.034 0-2.004.389-2.715 1.164l-2.133 2.069c-.388-.13-.711-.323-1.1-.453v-2.973c.065-2.069-1.68-3.814-3.814-3.814zM31.92 36.46A4.47 4.47 0 0127.46 32a4.47 4.47 0 014.46-4.46A4.47 4.47 0 0136.38 32a4.47 4.47 0 01-4.46 4.46z" fill="#fff"/></g><defs><clipPath id="clip0"><path fill="#fff" d="M0 0h64v64H0z"/></clipPath></defs></svg>